<?xml version="1.0" encoding="utf-8" standalone="no"?>
<!DOCTYPE svg PUBLIC "-//W3C//DTD SVG 1.1//EN"
  "http://www.w3.org/Graphics/SVG/1.1/DTD/svg11.dtd">
<!-- Created with matplotlib (https://matplotlib.org/) -->
<svg height="936pt" version="1.1" viewBox="0 0 1152 936" width="1152pt" xmlns="http://www.w3.org/2000/svg" xmlns:xlink="http://www.w3.org/1999/xlink">
 <metadata>
  <rdf:RDF xmlns:cc="http://creativecommons.org/ns#" xmlns:dc="http://purl.org/dc/elements/1.1/" xmlns:rdf="http://www.w3.org/1999/02/22-rdf-syntax-ns#">
   <cc:Work>
    <dc:type rdf:resource="http://purl.org/dc/dcmitype/StillImage"/>
    <dc:date>2020-10-15T11:51:47.135308</dc:date>
    <dc:format>image/svg+xml</dc:format>
    <dc:creator>
     <cc:Agent>
      <dc:title>Matplotlib v3.3.2, https://matplotlib.org/</dc:title>
     </cc:Agent>
    </dc:creator>
   </cc:Work>
  </rdf:RDF>
 </metadata>
 <defs>
  <style type="text/css">*{stroke-linecap:butt;stroke-linejoin:round;}</style>
 </defs>
 <g id="figure_1">
  <g id="patch_1">
   <path d="M 0 936 
L 1152 936 
L 1152 0 
L 0 0 
z
" style="fill:none;"/>
  </g>
  <g id="axes_1">
   <g id="patch_2">
    <path d="M 144 702 
L 1036.8 702 
L 1036.8 112.32 
L 144 112.32 
z
" style="fill:#ffffff;"/>
   </g>
   <g id="patch_3">
    <path clip-path="url(#p43c45fc326)" d="M 144 122.85 
L 144 312.39 
L 1036.8 312.39 
L 1036.8 122.85 
z
" style="fill:#808080;opacity:0.4;"/>
   </g>
   <g id="PatchCollection_1">
    <path clip-path="url(#p43c45fc326)" d="M 214.68 147.200625 
L 222.12 147.200625 
L 222.12 635.529375 
L 214.68 635.529375 
z
" style="fill:#fdfbf2;stroke:#3b3b3b;"/>
    <path clip-path="url(#p43c45fc326)" d="M 210.96 161.02125 
L 225.84 161.02125 
L 225.84 621.70875 
L 210.96 621.70875 
z
" style="fill:#faf5df;stroke:#3b3b3b;"/>
    <path clip-path="url(#p43c45fc326)" d="M 203.52 164.97 
L 233.28 164.97 
L 233.28 586.17 
L 203.52 586.17 
z
" style="fill:#f8efcd;stroke:#3b3b3b;"/>
    <path clip-path="url(#p43c45fc326)" d="M 188.64 212.355 
L 248.16 212.355 
L 248.16 565.11 
L 188.64 565.11 
z
" style="fill:#f5e9ba;stroke:#3b3b3b;"/>
    <path clip-path="url(#p43c45fc326)" d="M 158.88 249.21 
L 277.92 249.21 
L 277.92 501.93 
L 158.88 501.93 
z
" style="fill:#f2e3a7;stroke:#3b3b3b;"/>
   </g>
   <g id="PatchCollection_2">
    <path clip-path="url(#p43c45fc326)" d="M 363.48 122.85 
L 370.92 122.85 
L 370.92 629.60625 
L 363.48 629.60625 
z
" style="fill:#fcf7eb;stroke:#3b3b3b;"/>
    <path clip-path="url(#p43c45fc326)" d="M 359.76 122.85 
L 374.64 122.85 
L 374.64 620.3925 
L 359.76 620.3925 
z
" style="fill:#f8ebd0;stroke:#3b3b3b;"/>
    <path clip-path="url(#p43c45fc326)" d="M 352.32 130.7475 
L 382.08 130.7475 
L 382.08 546.6825 
L 352.32 546.6825 
z
" style="fill:#f4dfb4;stroke:#3b3b3b;"/>
    <path clip-path="url(#p43c45fc326)" d="M 337.44 133.38 
L 396.96 133.38 
L 396.96 449.28 
L 337.44 449.28 
z
" style="fill:#efd398;stroke:#3b3b3b;"/>
    <path clip-path="url(#p43c45fc326)" d="M 307.68 154.44 
L 426.72 154.44 
L 426.72 396.63 
L 307.68 396.63 
z
" style="fill:#ebc77c;stroke:#3b3b3b;"/>
   </g>
   <g id="PatchCollection_3">
    <path clip-path="url(#p43c45fc326)" d="M 512.28 122.85 
L 519.72 122.85 
L 519.72 614.469375 
L 512.28 614.469375 
z
" style="fill:#fbf1e7;stroke:#3b3b3b;"/>
    <path clip-path="url(#p43c45fc326)" d="M 508.56 122.85 
L 523.44 122.85 
L 523.44 600.64875 
L 508.56 600.64875 
z
" style="fill:#f6dec4;stroke:#3b3b3b;"/>
    <path clip-path="url(#p43c45fc326)" d="M 501.12 130.7475 
L 530.88 130.7475 
L 530.88 541.4175 
L 501.12 541.4175 
z
" style="fill:#f1caa2;stroke:#3b3b3b;"/>
    <path clip-path="url(#p43c45fc326)" d="M 486.24 133.38 
L 545.76 133.38 
L 545.76 486.135 
L 486.24 486.135 
z
" style="fill:#ecb67f;stroke:#3b3b3b;"/>
    <path clip-path="url(#p43c45fc326)" d="M 456.48 154.44 
L 575.52 154.44 
L 575.52 386.1 
L 456.48 386.1 
z
" style="fill:#e7a25c;stroke:#3b3b3b;"/>
   </g>
   <g id="PatchCollection_4">
    <path clip-path="url(#p43c45fc326)" d="M 661.08 122.85 
L 668.52 122.85 
L 668.52 628.29 
L 661.08 628.29 
z
" style="fill:#fbeae4;stroke:#3b3b3b;"/>
    <path clip-path="url(#p43c45fc326)" d="M 657.36 122.85 
L 672.24 122.85 
L 672.24 628.29 
L 657.36 628.29 
z
" style="fill:#f5cdbe;stroke:#3b3b3b;"/>
    <path clip-path="url(#p43c45fc326)" d="M 649.92 130.7475 
L 679.68 130.7475 
L 679.68 565.11 
L 649.92 565.11 
z
" style="fill:#efaf98;stroke:#3b3b3b;"/>
    <path clip-path="url(#p43c45fc326)" d="M 635.04 154.44 
L 694.56 154.44 
L 694.56 538.785 
L 635.04 538.785 
z
" style="fill:#e99271;stroke:#3b3b3b;"/>
    <path clip-path="url(#p43c45fc326)" d="M 605.28 196.56 
L 724.32 196.56 
L 724.32 428.22 
L 605.28 428.22 
z
" style="fill:#e3744b;stroke:#3b3b3b;"/>
   </g>
   <g id="PatchCollection_5">
    <path clip-path="url(#p43c45fc326)" d="M 809.88 122.85 
L 817.32 122.85 
L 817.32 602.623125 
L 809.88 602.623125 
z
" style="fill:#f8e3e1;stroke:#3b3b3b;"/>
    <path clip-path="url(#p43c45fc326)" d="M 806.16 122.85 
L 821.04 122.85 
L 821.04 524.30625 
L 806.16 524.30625 
z
" style="fill:#eebab8;stroke:#3b3b3b;"/>
    <path clip-path="url(#p43c45fc326)" d="M 798.72 130.7475 
L 828.48 130.7475 
L 828.48 470.34 
L 798.72 470.34 
z
" style="fill:#e5928e;stroke:#3b3b3b;"/>
    <path clip-path="url(#p43c45fc326)" d="M 783.84 154.44 
L 843.36 154.44 
L 843.36 438.75 
L 783.84 438.75 
z
" style="fill:#db6963;stroke:#3b3b3b;"/>
    <path clip-path="url(#p43c45fc326)" d="M 754.08 186.03 
L 873.12 186.03 
L 873.12 333.45 
L 754.08 333.45 
z
" style="fill:#d14039;stroke:#3b3b3b;"/>
   </g>
   <g id="PatchCollection_6">
    <path clip-path="url(#p43c45fc326)" d="M 958.68 122.85 
L 966.12 122.85 
L 966.12 574.32375 
L 958.68 574.32375 
z
" style="fill:#f2dde1;stroke:#3b3b3b;"/>
    <path clip-path="url(#p43c45fc326)" d="M 954.96 122.85 
L 969.84 122.85 
L 969.84 509.8275 
L 954.96 509.8275 
z
" style="fill:#e0adb6;stroke:#3b3b3b;"/>
    <path clip-path="url(#p43c45fc326)" d="M 947.52 146.5425 
L 977.28 146.5425 
L 977.28 428.22 
L 947.52 428.22 
z
" style="fill:#ce7c8b;stroke:#3b3b3b;"/>
    <path clip-path="url(#p43c45fc326)" d="M 932.64 159.705 
L 992.16 159.705 
L 992.16 396.63 
L 932.64 396.63 
z
" style="fill:#bc4c5f;stroke:#3b3b3b;"/>
    <path clip-path="url(#p43c45fc326)" d="M 902.88 196.56 
L 1021.92 196.56 
L 1021.92 312.39 
L 902.88 312.39 
z
" style="fill:#aa1b34;stroke:#3b3b3b;"/>
   </g>
   <g id="PathCollection_1"/>
   <g id="PathCollection_2"/>
   <g id="PathCollection_3"/>
   <g id="PathCollection_4"/>
   <g id="PathCollection_5"/>
   <g id="PathCollection_6"/>
   <g id="PathCollection_7"/>
   <g id="matplotlib.axis_1">
    <g id="xtick_1">
     <g id="line2d_1">
      <defs>
       <path d="M 0 0 
L 0 3.5 
" id="mf11ccf7bde" style="stroke:#000000;stroke-width:0.8;"/>
      </defs>
      <g>
       <use style="stroke:#000000;stroke-width:0.8;" x="218.4" xlink:href="#mf11ccf7bde" y="702"/>
      </g>
     </g>
     <g id="text_1">
      <!-- Random -->
      <g transform="translate(188.59425 719.94175)scale(0.144 -0.144)">
       <defs>
        <path d="M 44.390625 34.1875 
Q 47.5625 33.109375 50.5625 29.59375 
Q 53.5625 26.078125 56.59375 19.921875 
L 66.609375 0 
L 56 0 
L 46.6875 18.703125 
Q 43.0625 26.03125 39.671875 28.421875 
Q 36.28125 30.8125 30.421875 30.8125 
L 19.671875 30.8125 
L 19.671875 0 
L 9.8125 0 
L 9.8125 72.90625 
L 32.078125 72.90625 
Q 44.578125 72.90625 50.734375 67.671875 
Q 56.890625 62.453125 56.890625 51.90625 
Q 56.890625 45.015625 53.6875 40.46875 
Q 50.484375 35.9375 44.390625 34.1875 
z
M 19.671875 64.796875 
L 19.671875 38.921875 
L 32.078125 38.921875 
Q 39.203125 38.921875 42.84375 42.21875 
Q 46.484375 45.515625 46.484375 51.90625 
Q 46.484375 58.296875 42.84375 61.546875 
Q 39.203125 64.796875 32.078125 64.796875 
z
" id="DejaVuSans-82"/>
        <path d="M 34.28125 27.484375 
Q 23.390625 27.484375 19.1875 25 
Q 14.984375 22.515625 14.984375 16.5 
Q 14.984375 11.71875 18.140625 8.90625 
Q 21.296875 6.109375 26.703125 6.109375 
Q 34.1875 6.109375 38.703125 11.40625 
Q 43.21875 16.703125 43.21875 25.484375 
L 43.21875 27.484375 
z
M 52.203125 31.203125 
L 52.203125 0 
L 43.21875 0 
L 43.21875 8.296875 
Q 40.140625 3.328125 35.546875 0.953125 
Q 30.953125 -1.421875 24.3125 -1.421875 
Q 15.921875 -1.421875 10.953125 3.296875 
Q 6 8.015625 6 15.921875 
Q 6 25.140625 12.171875 29.828125 
Q 18.359375 34.515625 30.609375 34.515625 
L 43.21875 34.515625 
L 43.21875 35.40625 
Q 43.21875 41.609375 39.140625 45 
Q 35.0625 48.390625 27.6875 48.390625 
Q 23 48.390625 18.546875 47.265625 
Q 14.109375 46.140625 10.015625 43.890625 
L 10.015625 52.203125 
Q 14.9375 54.109375 19.578125 55.046875 
Q 24.21875 56 28.609375 56 
Q 40.484375 56 46.34375 49.84375 
Q 52.203125 43.703125 52.203125 31.203125 
z
" id="DejaVuSans-97"/>
        <path d="M 54.890625 33.015625 
L 54.890625 0 
L 45.90625 0 
L 45.90625 32.71875 
Q 45.90625 40.484375 42.875 44.328125 
Q 39.84375 48.1875 33.796875 48.1875 
Q 26.515625 48.1875 22.3125 43.546875 
Q 18.109375 38.921875 18.109375 30.90625 
L 18.109375 0 
L 9.078125 0 
L 9.078125 54.6875 
L 18.109375 54.6875 
L 18.109375 46.1875 
Q 21.34375 51.125 25.703125 53.5625 
Q 30.078125 56 35.796875 56 
Q 45.21875 56 50.046875 50.171875 
Q 54.890625 44.34375 54.890625 33.015625 
z
" id="DejaVuSans-110"/>
        <path d="M 45.40625 46.390625 
L 45.40625 75.984375 
L 54.390625 75.984375 
L 54.390625 0 
L 45.40625 0 
L 45.40625 8.203125 
Q 42.578125 3.328125 38.25 0.953125 
Q 33.9375 -1.421875 27.875 -1.421875 
Q 17.96875 -1.421875 11.734375 6.484375 
Q 5.515625 14.40625 5.515625 27.296875 
Q 5.515625 40.1875 11.734375 48.09375 
Q 17.96875 56 27.875 56 
Q 33.9375 56 38.25 53.625 
Q 42.578125 51.265625 45.40625 46.390625 
z
M 14.796875 27.296875 
Q 14.796875 17.390625 18.875 11.75 
Q 22.953125 6.109375 30.078125 6.109375 
Q 37.203125 6.109375 41.296875 11.75 
Q 45.40625 17.390625 45.40625 27.296875 
Q 45.40625 37.203125 41.296875 42.84375 
Q 37.203125 48.484375 30.078125 48.484375 
Q 22.953125 48.484375 18.875 42.84375 
Q 14.796875 37.203125 14.796875 27.296875 
z
" id="DejaVuSans-100"/>
        <path d="M 30.609375 48.390625 
Q 23.390625 48.390625 19.1875 42.75 
Q 14.984375 37.109375 14.984375 27.296875 
Q 14.984375 17.484375 19.15625 11.84375 
Q 23.34375 6.203125 30.609375 6.203125 
Q 37.796875 6.203125 41.984375 11.859375 
Q 46.1875 17.53125 46.1875 27.296875 
Q 46.1875 37.015625 41.984375 42.703125 
Q 37.796875 48.390625 30.609375 48.390625 
z
M 30.609375 56 
Q 42.328125 56 49.015625 48.375 
Q 55.71875 40.765625 55.71875 27.296875 
Q 55.71875 13.875 49.015625 6.21875 
Q 42.328125 -1.421875 30.609375 -1.421875 
Q 18.84375 -1.421875 12.171875 6.21875 
Q 5.515625 13.875 5.515625 27.296875 
Q 5.515625 40.765625 12.171875 48.375 
Q 18.84375 56 30.609375 56 
z
" id="DejaVuSans-111"/>
        <path d="M 52 44.1875 
Q 55.375 50.25 60.0625 53.125 
Q 64.75 56 71.09375 56 
Q 79.640625 56 84.28125 50.015625 
Q 88.921875 44.046875 88.921875 33.015625 
L 88.921875 0 
L 79.890625 0 
L 79.890625 32.71875 
Q 79.890625 40.578125 77.09375 44.375 
Q 74.3125 48.1875 68.609375 48.1875 
Q 61.625 48.1875 57.5625 43.546875 
Q 53.515625 38.921875 53.515625 30.90625 
L 53.515625 0 
L 44.484375 0 
L 44.484375 32.71875 
Q 44.484375 40.625 41.703125 44.40625 
Q 38.921875 48.1875 33.109375 48.1875 
Q 26.21875 48.1875 22.15625 43.53125 
Q 18.109375 38.875 18.109375 30.90625 
L 18.109375 0 
L 9.078125 0 
L 9.078125 54.6875 
L 18.109375 54.6875 
L 18.109375 46.1875 
Q 21.1875 51.21875 25.484375 53.609375 
Q 29.78125 56 35.6875 56 
Q 41.65625 56 45.828125 52.96875 
Q 50 49.953125 52 44.1875 
z
" id="DejaVuSans-109"/>
       </defs>
       <use xlink:href="#DejaVuSans-82"/>
       <use x="67.232422" xlink:href="#DejaVuSans-97"/>
       <use x="128.511719" xlink:href="#DejaVuSans-110"/>
       <use x="191.890625" xlink:href="#DejaVuSans-100"/>
       <use x="255.367188" xlink:href="#DejaVuSans-111"/>
       <use x="316.548828" xlink:href="#DejaVuSans-109"/>
      </g>
     </g>
    </g>
    <g id="xtick_2">
     <g id="line2d_2">
      <g>
       <use style="stroke:#000000;stroke-width:0.8;" x="367.2" xlink:href="#mf11ccf7bde" y="702"/>
      </g>
     </g>
     <g id="text_2">
      <!-- BC (kcal/mol) -->
      <g transform="translate(319.066875 719.94175)scale(0.144 -0.144)">
       <defs>
        <path d="M 19.671875 34.8125 
L 19.671875 8.109375 
L 35.5 8.109375 
Q 43.453125 8.109375 47.28125 11.40625 
Q 51.125 14.703125 51.125 21.484375 
Q 51.125 28.328125 47.28125 31.5625 
Q 43.453125 34.8125 35.5 34.8125 
z
M 19.671875 64.796875 
L 19.671875 42.828125 
L 34.28125 42.828125 
Q 41.5 42.828125 45.03125 45.53125 
Q 48.578125 48.25 48.578125 53.8125 
Q 48.578125 59.328125 45.03125 62.0625 
Q 41.5 64.796875 34.28125 64.796875 
z
M 9.8125 72.90625 
L 35.015625 72.90625 
Q 46.296875 72.90625 52.390625 68.21875 
Q 58.5 63.53125 58.5 54.890625 
Q 58.5 48.1875 55.375 44.234375 
Q 52.25 40.28125 46.1875 39.3125 
Q 53.46875 37.75 57.5 32.78125 
Q 61.53125 27.828125 61.53125 20.40625 
Q 61.53125 10.640625 54.890625 5.3125 
Q 48.25 0 35.984375 0 
L 9.8125 0 
z
" id="DejaVuSans-66"/>
        <path d="M 64.40625 67.28125 
L 64.40625 56.890625 
Q 59.421875 61.53125 53.78125 63.8125 
Q 48.140625 66.109375 41.796875 66.109375 
Q 29.296875 66.109375 22.65625 58.46875 
Q 16.015625 50.828125 16.015625 36.375 
Q 16.015625 21.96875 22.65625 14.328125 
Q 29.296875 6.6875 41.796875 6.6875 
Q 48.140625 6.6875 53.78125 8.984375 
Q 59.421875 11.28125 64.40625 15.921875 
L 64.40625 5.609375 
Q 59.234375 2.09375 53.4375 0.328125 
Q 47.65625 -1.421875 41.21875 -1.421875 
Q 24.65625 -1.421875 15.125 8.703125 
Q 5.609375 18.84375 5.609375 36.375 
Q 5.609375 53.953125 15.125 64.078125 
Q 24.65625 74.21875 41.21875 74.21875 
Q 47.75 74.21875 53.53125 72.484375 
Q 59.328125 70.75 64.40625 67.28125 
z
" id="DejaVuSans-67"/>
        <path id="DejaVuSans-32"/>
        <path d="M 31 75.875 
Q 24.46875 64.65625 21.28125 53.65625 
Q 18.109375 42.671875 18.109375 31.390625 
Q 18.109375 20.125 21.3125 9.0625 
Q 24.515625 -2 31 -13.1875 
L 23.1875 -13.1875 
Q 15.875 -1.703125 12.234375 9.375 
Q 8.59375 20.453125 8.59375 31.390625 
Q 8.59375 42.28125 12.203125 53.3125 
Q 15.828125 64.359375 23.1875 75.875 
z
" id="DejaVuSans-40"/>
        <path d="M 9.078125 75.984375 
L 18.109375 75.984375 
L 18.109375 31.109375 
L 44.921875 54.6875 
L 56.390625 54.6875 
L 27.390625 29.109375 
L 57.625 0 
L 45.90625 0 
L 18.109375 26.703125 
L 18.109375 0 
L 9.078125 0 
z
" id="DejaVuSans-107"/>
        <path d="M 48.78125 52.59375 
L 48.78125 44.1875 
Q 44.96875 46.296875 41.140625 47.34375 
Q 37.3125 48.390625 33.40625 48.390625 
Q 24.65625 48.390625 19.8125 42.84375 
Q 14.984375 37.3125 14.984375 27.296875 
Q 14.984375 17.28125 19.8125 11.734375 
Q 24.65625 6.203125 33.40625 6.203125 
Q 37.3125 6.203125 41.140625 7.25 
Q 44.96875 8.296875 48.78125 10.40625 
L 48.78125 2.09375 
Q 45.015625 0.34375 40.984375 -0.53125 
Q 36.96875 -1.421875 32.421875 -1.421875 
Q 20.0625 -1.421875 12.78125 6.34375 
Q 5.515625 14.109375 5.515625 27.296875 
Q 5.515625 40.671875 12.859375 48.328125 
Q 20.21875 56 33.015625 56 
Q 37.15625 56 41.109375 55.140625 
Q 45.0625 54.296875 48.78125 52.59375 
z
" id="DejaVuSans-99"/>
        <path d="M 9.421875 75.984375 
L 18.40625 75.984375 
L 18.40625 0 
L 9.421875 0 
z
" id="DejaVuSans-108"/>
        <path d="M 25.390625 72.90625 
L 33.6875 72.90625 
L 8.296875 -9.28125 
L 0 -9.28125 
z
" id="DejaVuSans-47"/>
        <path d="M 8.015625 75.875 
L 15.828125 75.875 
Q 23.140625 64.359375 26.78125 53.3125 
Q 30.421875 42.28125 30.421875 31.390625 
Q 30.421875 20.453125 26.78125 9.375 
Q 23.140625 -1.703125 15.828125 -13.1875 
L 8.015625 -13.1875 
Q 14.5 -2 17.703125 9.0625 
Q 20.90625 20.125 20.90625 31.390625 
Q 20.90625 42.671875 17.703125 53.65625 
Q 14.5 64.65625 8.015625 75.875 
z
" id="DejaVuSans-41"/>
       </defs>
       <use xlink:href="#DejaVuSans-66"/>
       <use x="66.853516" xlink:href="#DejaVuSans-67"/>
       <use x="136.677734" xlink:href="#DejaVuSans-32"/>
       <use x="168.464844" xlink:href="#DejaVuSans-40"/>
       <use x="207.478516" xlink:href="#DejaVuSans-107"/>
       <use x="265.388672" xlink:href="#DejaVuSans-99"/>
       <use x="320.369141" xlink:href="#DejaVuSans-97"/>
       <use x="381.648438" xlink:href="#DejaVuSans-108"/>
       <use x="409.431641" xlink:href="#DejaVuSans-47"/>
       <use x="443.123047" xlink:href="#DejaVuSans-109"/>
       <use x="540.535156" xlink:href="#DejaVuSans-111"/>
       <use x="601.716797" xlink:href="#DejaVuSans-108"/>
       <use x="629.5" xlink:href="#DejaVuSans-41"/>
      </g>
     </g>
    </g>
    <g id="xtick_3">
     <g id="line2d_3">
      <g>
       <use style="stroke:#000000;stroke-width:0.8;" x="516" xlink:href="#mf11ccf7bde" y="702"/>
      </g>
     </g>
     <g id="text_3">
      <!-- LC (kcal/mol) -->
      <g transform="translate(468.669 719.94175)scale(0.144 -0.144)">
       <defs>
        <path d="M 9.8125 72.90625 
L 19.671875 72.90625 
L 19.671875 8.296875 
L 55.171875 8.296875 
L 55.171875 0 
L 9.8125 0 
z
" id="DejaVuSans-76"/>
       </defs>
       <use xlink:href="#DejaVuSans-76"/>
       <use x="55.712891" xlink:href="#DejaVuSans-67"/>
       <use x="125.537109" xlink:href="#DejaVuSans-32"/>
       <use x="157.324219" xlink:href="#DejaVuSans-40"/>
       <use x="196.337891" xlink:href="#DejaVuSans-107"/>
       <use x="254.248047" xlink:href="#DejaVuSans-99"/>
       <use x="309.228516" xlink:href="#DejaVuSans-97"/>
       <use x="370.507812" xlink:href="#DejaVuSans-108"/>
       <use x="398.291016" xlink:href="#DejaVuSans-47"/>
       <use x="431.982422" xlink:href="#DejaVuSans-109"/>
       <use x="529.394531" xlink:href="#DejaVuSans-111"/>
       <use x="590.576172" xlink:href="#DejaVuSans-108"/>
       <use x="618.359375" xlink:href="#DejaVuSans-41"/>
      </g>
     </g>
    </g>
    <g id="xtick_4">
     <g id="line2d_4">
      <g>
       <use style="stroke:#000000;stroke-width:0.8;" x="664.8" xlink:href="#mf11ccf7bde" y="702"/>
      </g>
     </g>
     <g id="text_4">
      <!-- BCaa (kcal/mol) -->
      <g transform="translate(607.842375 719.94175)scale(0.144 -0.144)">
       <use xlink:href="#DejaVuSans-66"/>
       <use x="66.853516" xlink:href="#DejaVuSans-67"/>
       <use x="136.677734" xlink:href="#DejaVuSans-97"/>
       <use x="197.957031" xlink:href="#DejaVuSans-97"/>
       <use x="259.236328" xlink:href="#DejaVuSans-32"/>
       <use x="291.023438" xlink:href="#DejaVuSans-40"/>
       <use x="330.037109" xlink:href="#DejaVuSans-107"/>
       <use x="387.947266" xlink:href="#DejaVuSans-99"/>
       <use x="442.927734" xlink:href="#DejaVuSans-97"/>
       <use x="504.207031" xlink:href="#DejaVuSans-108"/>
       <use x="531.990234" xlink:href="#DejaVuSans-47"/>
       <use x="565.681641" xlink:href="#DejaVuSans-109"/>
       <use x="663.09375" xlink:href="#DejaVuSans-111"/>
       <use x="724.275391" xlink:href="#DejaVuSans-108"/>
       <use x="752.058594" xlink:href="#DejaVuSans-41"/>
      </g>
     </g>
    </g>
    <g id="xtick_5">
     <g id="line2d_5">
      <g>
       <use style="stroke:#000000;stroke-width:0.8;" x="813.6" xlink:href="#mf11ccf7bde" y="702"/>
      </g>
     </g>
     <g id="text_5">
      <!-- LCaa (kcal/mol) -->
      <g transform="translate(757.4445 719.94175)scale(0.144 -0.144)">
       <use xlink:href="#DejaVuSans-76"/>
       <use x="55.712891" xlink:href="#DejaVuSans-67"/>
       <use x="125.537109" xlink:href="#DejaVuSans-97"/>
       <use x="186.816406" xlink:href="#DejaVuSans-97"/>
       <use x="248.095703" xlink:href="#DejaVuSans-32"/>
       <use x="279.882812" xlink:href="#DejaVuSans-40"/>
       <use x="318.896484" xlink:href="#DejaVuSans-107"/>
       <use x="376.806641" xlink:href="#DejaVuSans-99"/>
       <use x="431.787109" xlink:href="#DejaVuSans-97"/>
       <use x="493.066406" xlink:href="#DejaVuSans-108"/>
       <use x="520.849609" xlink:href="#DejaVuSans-47"/>
       <use x="554.541016" xlink:href="#DejaVuSans-109"/>
       <use x="651.953125" xlink:href="#DejaVuSans-111"/>
       <use x="713.134766" xlink:href="#DejaVuSans-108"/>
       <use x="740.917969" xlink:href="#DejaVuSans-41"/>
      </g>
     </g>
    </g>
    <g id="xtick_6">
     <g id="line2d_6">
      <g>
       <use style="stroke:#000000;stroke-width:0.8;" x="962.4" xlink:href="#mf11ccf7bde" y="702"/>
      </g>
     </g>
     <g id="text_6">
      <!-- LCaaM (kcal/mol) -->
      <g transform="translate(900.03225 719.94175)scale(0.144 -0.144)">
       <defs>
        <path d="M 9.8125 72.90625 
L 24.515625 72.90625 
L 43.109375 23.296875 
L 61.8125 72.90625 
L 76.515625 72.90625 
L 76.515625 0 
L 66.890625 0 
L 66.890625 64.015625 
L 48.09375 14.015625 
L 38.1875 14.015625 
L 19.390625 64.015625 
L 19.390625 0 
L 9.8125 0 
z
" id="DejaVuSans-77"/>
       </defs>
       <use xlink:href="#DejaVuSans-76"/>
       <use x="55.712891" xlink:href="#DejaVuSans-67"/>
       <use x="125.537109" xlink:href="#DejaVuSans-97"/>
       <use x="186.816406" xlink:href="#DejaVuSans-97"/>
       <use x="248.095703" xlink:href="#DejaVuSans-77"/>
       <use x="334.375" xlink:href="#DejaVuSans-32"/>
       <use x="366.162109" xlink:href="#DejaVuSans-40"/>
       <use x="405.175781" xlink:href="#DejaVuSans-107"/>
       <use x="463.085938" xlink:href="#DejaVuSans-99"/>
       <use x="518.066406" xlink:href="#DejaVuSans-97"/>
       <use x="579.345703" xlink:href="#DejaVuSans-108"/>
       <use x="607.128906" xlink:href="#DejaVuSans-47"/>
       <use x="640.820312" xlink:href="#DejaVuSans-109"/>
       <use x="738.232422" xlink:href="#DejaVuSans-111"/>
       <use x="799.414062" xlink:href="#DejaVuSans-108"/>
       <use x="827.197266" xlink:href="#DejaVuSans-41"/>
      </g>
     </g>
    </g>
    <g id="text_7">
     <!-- Ranking Method -->
     <g transform="translate(531.98775 737.87825)scale(0.144 -0.144)">
      <defs>
       <path d="M 9.421875 54.6875 
L 18.40625 54.6875 
L 18.40625 0 
L 9.421875 0 
z
M 9.421875 75.984375 
L 18.40625 75.984375 
L 18.40625 64.59375 
L 9.421875 64.59375 
z
" id="DejaVuSans-105"/>
       <path d="M 45.40625 27.984375 
Q 45.40625 37.75 41.375 43.109375 
Q 37.359375 48.484375 30.078125 48.484375 
Q 22.859375 48.484375 18.828125 43.109375 
Q 14.796875 37.75 14.796875 27.984375 
Q 14.796875 18.265625 18.828125 12.890625 
Q 22.859375 7.515625 30.078125 7.515625 
Q 37.359375 7.515625 41.375 12.890625 
Q 45.40625 18.265625 45.40625 27.984375 
z
M 54.390625 6.78125 
Q 54.390625 -7.171875 48.1875 -13.984375 
Q 42 -20.796875 29.203125 -20.796875 
Q 24.46875 -20.796875 20.265625 -20.09375 
Q 16.0625 -19.390625 12.109375 -17.921875 
L 12.109375 -9.1875 
Q 16.0625 -11.328125 19.921875 -12.34375 
Q 23.78125 -13.375 27.78125 -13.375 
Q 36.625 -13.375 41.015625 -8.765625 
Q 45.40625 -4.15625 45.40625 5.171875 
L 45.40625 9.625 
Q 42.625 4.78125 38.28125 2.390625 
Q 33.9375 0 27.875 0 
Q 17.828125 0 11.671875 7.65625 
Q 5.515625 15.328125 5.515625 27.984375 
Q 5.515625 40.671875 11.671875 48.328125 
Q 17.828125 56 27.875 56 
Q 33.9375 56 38.28125 53.609375 
Q 42.625 51.21875 45.40625 46.390625 
L 45.40625 54.6875 
L 54.390625 54.6875 
z
" id="DejaVuSans-103"/>
       <path d="M 56.203125 29.59375 
L 56.203125 25.203125 
L 14.890625 25.203125 
Q 15.484375 15.921875 20.484375 11.0625 
Q 25.484375 6.203125 34.421875 6.203125 
Q 39.59375 6.203125 44.453125 7.46875 
Q 49.3125 8.734375 54.109375 11.28125 
L 54.109375 2.78125 
Q 49.265625 0.734375 44.1875 -0.34375 
Q 39.109375 -1.421875 33.890625 -1.421875 
Q 20.796875 -1.421875 13.15625 6.1875 
Q 5.515625 13.8125 5.515625 26.8125 
Q 5.515625 40.234375 12.765625 48.109375 
Q 20.015625 56 32.328125 56 
Q 43.359375 56 49.78125 48.890625 
Q 56.203125 41.796875 56.203125 29.59375 
z
M 47.21875 32.234375 
Q 47.125 39.59375 43.09375 43.984375 
Q 39.0625 48.390625 32.421875 48.390625 
Q 24.90625 48.390625 20.390625 44.140625 
Q 15.875 39.890625 15.1875 32.171875 
z
" id="DejaVuSans-101"/>
       <path d="M 18.3125 70.21875 
L 18.3125 54.6875 
L 36.8125 54.6875 
L 36.8125 47.703125 
L 18.3125 47.703125 
L 18.3125 18.015625 
Q 18.3125 11.328125 20.140625 9.421875 
Q 21.96875 7.515625 27.59375 7.515625 
L 36.8125 7.515625 
L 36.8125 0 
L 27.59375 0 
Q 17.1875 0 13.234375 3.875 
Q 9.28125 7.765625 9.28125 18.015625 
L 9.28125 47.703125 
L 2.6875 47.703125 
L 2.6875 54.6875 
L 9.28125 54.6875 
L 9.28125 70.21875 
z
" id="DejaVuSans-116"/>
       <path d="M 54.890625 33.015625 
L 54.890625 0 
L 45.90625 0 
L 45.90625 32.71875 
Q 45.90625 40.484375 42.875 44.328125 
Q 39.84375 48.1875 33.796875 48.1875 
Q 26.515625 48.1875 22.3125 43.546875 
Q 18.109375 38.921875 18.109375 30.90625 
L 18.109375 0 
L 9.078125 0 
L 9.078125 75.984375 
L 18.109375 75.984375 
L 18.109375 46.1875 
Q 21.34375 51.125 25.703125 53.5625 
Q 30.078125 56 35.796875 56 
Q 45.21875 56 50.046875 50.171875 
Q 54.890625 44.34375 54.890625 33.015625 
z
" id="DejaVuSans-104"/>
      </defs>
      <use xlink:href="#DejaVuSans-82"/>
      <use x="67.232422" xlink:href="#DejaVuSans-97"/>
      <use x="128.511719" xlink:href="#DejaVuSans-110"/>
      <use x="191.890625" xlink:href="#DejaVuSans-107"/>
      <use x="249.800781" xlink:href="#DejaVuSans-105"/>
      <use x="277.583984" xlink:href="#DejaVuSans-110"/>
      <use x="340.962891" xlink:href="#DejaVuSans-103"/>
      <use x="404.439453" xlink:href="#DejaVuSans-32"/>
      <use x="436.226562" xlink:href="#DejaVuSans-77"/>
      <use x="522.505859" xlink:href="#DejaVuSans-101"/>
      <use x="584.029297" xlink:href="#DejaVuSans-116"/>
      <use x="623.238281" xlink:href="#DejaVuSans-104"/>
      <use x="686.617188" xlink:href="#DejaVuSans-111"/>
      <use x="747.798828" xlink:href="#DejaVuSans-100"/>
     </g>
    </g>
   </g>
   <g id="matplotlib.axis_2">
    <g id="ytick_1">
     <g id="line2d_7">
      <defs>
       <path d="M 0 0 
L -3.5 0 
" id="m21eeba8170" style="stroke:#000000;stroke-width:0.8;"/>
      </defs>
      <g>
       <use style="stroke:#000000;stroke-width:0.8;" x="144" xlink:href="#m21eeba8170" y="112.32"/>
      </g>
     </g>
     <g id="text_8">
      <!-- 0 -->
      <g transform="translate(127.838 117.790875)scale(0.144 -0.144)">
       <defs>
        <path d="M 31.78125 66.40625 
Q 24.171875 66.40625 20.328125 58.90625 
Q 16.5 51.421875 16.5 36.375 
Q 16.5 21.390625 20.328125 13.890625 
Q 24.171875 6.390625 31.78125 6.390625 
Q 39.453125 6.390625 43.28125 13.890625 
Q 47.125 21.390625 47.125 36.375 
Q 47.125 51.421875 43.28125 58.90625 
Q 39.453125 66.40625 31.78125 66.40625 
z
M 31.78125 74.21875 
Q 44.046875 74.21875 50.515625 64.515625 
Q 56.984375 54.828125 56.984375 36.375 
Q 56.984375 17.96875 50.515625 8.265625 
Q 44.046875 -1.421875 31.78125 -1.421875 
Q 19.53125 -1.421875 13.0625 8.265625 
Q 6.59375 17.96875 6.59375 36.375 
Q 6.59375 54.828125 13.0625 64.515625 
Q 19.53125 74.21875 31.78125 74.21875 
z
" id="DejaVuSans-48"/>
       </defs>
       <use xlink:href="#DejaVuSans-48"/>
      </g>
     </g>
    </g>
    <g id="ytick_2">
     <g id="line2d_8">
      <g>
       <use style="stroke:#000000;stroke-width:0.8;" x="144" xlink:href="#m21eeba8170" y="217.62"/>
      </g>
     </g>
     <g id="text_9">
      <!-- 10 -->
      <g transform="translate(118.676 223.090875)scale(0.144 -0.144)">
       <defs>
        <path d="M 12.40625 8.296875 
L 28.515625 8.296875 
L 28.515625 63.921875 
L 10.984375 60.40625 
L 10.984375 69.390625 
L 28.421875 72.90625 
L 38.28125 72.90625 
L 38.28125 8.296875 
L 54.390625 8.296875 
L 54.390625 0 
L 12.40625 0 
z
" id="DejaVuSans-49"/>
       </defs>
       <use xlink:href="#DejaVuSans-49"/>
       <use x="63.623047" xlink:href="#DejaVuSans-48"/>
      </g>
     </g>
    </g>
    <g id="ytick_3">
     <g id="line2d_9">
      <g>
       <use style="stroke:#000000;stroke-width:0.8;" x="144" xlink:href="#m21eeba8170" y="322.92"/>
      </g>
     </g>
     <g id="text_10">
      <!-- 20 -->
      <g transform="translate(118.676 328.390875)scale(0.144 -0.144)">
       <defs>
        <path d="M 19.1875 8.296875 
L 53.609375 8.296875 
L 53.609375 0 
L 7.328125 0 
L 7.328125 8.296875 
Q 12.9375 14.109375 22.625 23.890625 
Q 32.328125 33.6875 34.8125 36.53125 
Q 39.546875 41.84375 41.421875 45.53125 
Q 43.3125 49.21875 43.3125 52.78125 
Q 43.3125 58.59375 39.234375 62.25 
Q 35.15625 65.921875 28.609375 65.921875 
Q 23.96875 65.921875 18.8125 64.3125 
Q 13.671875 62.703125 7.8125 59.421875 
L 7.8125 69.390625 
Q 13.765625 71.78125 18.9375 73 
Q 24.125 74.21875 28.421875 74.21875 
Q 39.75 74.21875 46.484375 68.546875 
Q 53.21875 62.890625 53.21875 53.421875 
Q 53.21875 48.921875 51.53125 44.890625 
Q 49.859375 40.875 45.40625 35.40625 
Q 44.1875 33.984375 37.640625 27.21875 
Q 31.109375 20.453125 19.1875 8.296875 
z
" id="DejaVuSans-50"/>
       </defs>
       <use xlink:href="#DejaVuSans-50"/>
       <use x="63.623047" xlink:href="#DejaVuSans-48"/>
      </g>
     </g>
    </g>
    <g id="ytick_4">
     <g id="line2d_10">
      <g>
       <use style="stroke:#000000;stroke-width:0.8;" x="144" xlink:href="#m21eeba8170" y="428.22"/>
      </g>
     </g>
     <g id="text_11">
      <!-- 30 -->
      <g transform="translate(118.676 433.690875)scale(0.144 -0.144)">
       <defs>
        <path d="M 40.578125 39.3125 
Q 47.65625 37.796875 51.625 33 
Q 55.609375 28.21875 55.609375 21.1875 
Q 55.609375 10.40625 48.1875 4.484375 
Q 40.765625 -1.421875 27.09375 -1.421875 
Q 22.515625 -1.421875 17.65625 -0.515625 
Q 12.796875 0.390625 7.625 2.203125 
L 7.625 11.71875 
Q 11.71875 9.328125 16.59375 8.109375 
Q 21.484375 6.890625 26.8125 6.890625 
Q 36.078125 6.890625 40.9375 10.546875 
Q 45.796875 14.203125 45.796875 21.1875 
Q 45.796875 27.640625 41.28125 31.265625 
Q 36.765625 34.90625 28.71875 34.90625 
L 20.21875 34.90625 
L 20.21875 43.015625 
L 29.109375 43.015625 
Q 36.375 43.015625 40.234375 45.921875 
Q 44.09375 48.828125 44.09375 54.296875 
Q 44.09375 59.90625 40.109375 62.90625 
Q 36.140625 65.921875 28.71875 65.921875 
Q 24.65625 65.921875 20.015625 65.03125 
Q 15.375 64.15625 9.8125 62.3125 
L 9.8125 71.09375 
Q 15.4375 72.65625 20.34375 73.4375 
Q 25.25 74.21875 29.59375 74.21875 
Q 40.828125 74.21875 47.359375 69.109375 
Q 53.90625 64.015625 53.90625 55.328125 
Q 53.90625 49.265625 50.4375 45.09375 
Q 46.96875 40.921875 40.578125 39.3125 
z
" id="DejaVuSans-51"/>
       </defs>
       <use xlink:href="#DejaVuSans-51"/>
       <use x="63.623047" xlink:href="#DejaVuSans-48"/>
      </g>
     </g>
    </g>
    <g id="ytick_5">
     <g id="line2d_11">
      <g>
       <use style="stroke:#000000;stroke-width:0.8;" x="144" xlink:href="#m21eeba8170" y="533.52"/>
      </g>
     </g>
     <g id="text_12">
      <!-- 40 -->
      <g transform="translate(118.676 538.990875)scale(0.144 -0.144)">
       <defs>
        <path d="M 37.796875 64.3125 
L 12.890625 25.390625 
L 37.796875 25.390625 
z
M 35.203125 72.90625 
L 47.609375 72.90625 
L 47.609375 25.390625 
L 58.015625 25.390625 
L 58.015625 17.1875 
L 47.609375 17.1875 
L 47.609375 0 
L 37.796875 0 
L 37.796875 17.1875 
L 4.890625 17.1875 
L 4.890625 26.703125 
z
" id="DejaVuSans-52"/>
       </defs>
       <use xlink:href="#DejaVuSans-52"/>
       <use x="63.623047" xlink:href="#DejaVuSans-48"/>
      </g>
     </g>
    </g>
    <g id="ytick_6">
     <g id="line2d_12">
      <g>
       <use style="stroke:#000000;stroke-width:0.8;" x="144" xlink:href="#m21eeba8170" y="638.82"/>
      </g>
     </g>
     <g id="text_13">
      <!-- 50 -->
      <g transform="translate(118.676 644.290875)scale(0.144 -0.144)">
       <defs>
        <path d="M 10.796875 72.90625 
L 49.515625 72.90625 
L 49.515625 64.59375 
L 19.828125 64.59375 
L 19.828125 46.734375 
Q 21.96875 47.46875 24.109375 47.828125 
Q 26.265625 48.1875 28.421875 48.1875 
Q 40.625 48.1875 47.75 41.5 
Q 54.890625 34.8125 54.890625 23.390625 
Q 54.890625 11.625 47.5625 5.09375 
Q 40.234375 -1.421875 26.90625 -1.421875 
Q 22.3125 -1.421875 17.546875 -0.640625 
Q 12.796875 0.140625 7.71875 1.703125 
L 7.71875 11.625 
Q 12.109375 9.234375 16.796875 8.0625 
Q 21.484375 6.890625 26.703125 6.890625 
Q 35.15625 6.890625 40.078125 11.328125 
Q 45.015625 15.765625 45.015625 23.390625 
Q 45.015625 31 40.078125 35.4375 
Q 35.15625 39.890625 26.703125 39.890625 
Q 22.75 39.890625 18.8125 39.015625 
Q 14.890625 38.140625 10.796875 36.28125 
z
" id="DejaVuSans-53"/>
       </defs>
       <use xlink:href="#DejaVuSans-53"/>
       <use x="63.623047" xlink:href="#DejaVuSans-48"/>
      </g>
     </g>
    </g>
    <g id="text_14">
     <!-- Ranking Position -->
     <g transform="translate(111.68125 466.596)rotate(-90)scale(0.144 -0.144)">
      <defs>
       <path d="M 19.671875 64.796875 
L 19.671875 37.40625 
L 32.078125 37.40625 
Q 38.96875 37.40625 42.71875 40.96875 
Q 46.484375 44.53125 46.484375 51.125 
Q 46.484375 57.671875 42.71875 61.234375 
Q 38.96875 64.796875 32.078125 64.796875 
z
M 9.8125 72.90625 
L 32.078125 72.90625 
Q 44.34375 72.90625 50.609375 67.359375 
Q 56.890625 61.8125 56.890625 51.125 
Q 56.890625 40.328125 50.609375 34.8125 
Q 44.34375 29.296875 32.078125 29.296875 
L 19.671875 29.296875 
L 19.671875 0 
L 9.8125 0 
z
" id="DejaVuSans-80"/>
       <path d="M 44.28125 53.078125 
L 44.28125 44.578125 
Q 40.484375 46.53125 36.375 47.5 
Q 32.28125 48.484375 27.875 48.484375 
Q 21.1875 48.484375 17.84375 46.4375 
Q 14.5 44.390625 14.5 40.28125 
Q 14.5 37.15625 16.890625 35.375 
Q 19.28125 33.59375 26.515625 31.984375 
L 29.59375 31.296875 
Q 39.15625 29.25 43.1875 25.515625 
Q 47.21875 21.78125 47.21875 15.09375 
Q 47.21875 7.46875 41.1875 3.015625 
Q 35.15625 -1.421875 24.609375 -1.421875 
Q 20.21875 -1.421875 15.453125 -0.5625 
Q 10.6875 0.296875 5.421875 2 
L 5.421875 11.28125 
Q 10.40625 8.6875 15.234375 7.390625 
Q 20.0625 6.109375 24.8125 6.109375 
Q 31.15625 6.109375 34.5625 8.28125 
Q 37.984375 10.453125 37.984375 14.40625 
Q 37.984375 18.0625 35.515625 20.015625 
Q 33.0625 21.96875 24.703125 23.78125 
L 21.578125 24.515625 
Q 13.234375 26.265625 9.515625 29.90625 
Q 5.8125 33.546875 5.8125 39.890625 
Q 5.8125 47.609375 11.28125 51.796875 
Q 16.75 56 26.8125 56 
Q 31.78125 56 36.171875 55.265625 
Q 40.578125 54.546875 44.28125 53.078125 
z
" id="DejaVuSans-115"/>
      </defs>
      <use xlink:href="#DejaVuSans-82"/>
      <use x="67.232422" xlink:href="#DejaVuSans-97"/>
      <use x="128.511719" xlink:href="#DejaVuSans-110"/>
      <use x="191.890625" xlink:href="#DejaVuSans-107"/>
      <use x="249.800781" xlink:href="#DejaVuSans-105"/>
      <use x="277.583984" xlink:href="#DejaVuSans-110"/>
      <use x="340.962891" xlink:href="#DejaVuSans-103"/>
      <use x="404.439453" xlink:href="#DejaVuSans-32"/>
      <use x="436.226562" xlink:href="#DejaVuSans-80"/>
      <use x="492.904297" xlink:href="#DejaVuSans-111"/>
      <use x="554.085938" xlink:href="#DejaVuSans-115"/>
      <use x="606.185547" xlink:href="#DejaVuSans-105"/>
      <use x="633.96875" xlink:href="#DejaVuSans-116"/>
      <use x="673.177734" xlink:href="#DejaVuSans-105"/>
      <use x="700.960938" xlink:href="#DejaVuSans-111"/>
      <use x="762.142578" xlink:href="#DejaVuSans-110"/>
     </g>
    </g>
   </g>
   <g id="line2d_13">
    <path clip-path="url(#p43c45fc326)" d="M 158.88 417.69 
L 277.92 417.69 
" style="fill:none;stroke:#262626;stroke-opacity:0.45;stroke-width:1.5;"/>
   </g>
   <g id="line2d_14">
    <path clip-path="url(#p43c45fc326)" d="M 307.68 301.86 
L 426.72 301.86 
" style="fill:none;stroke:#262626;stroke-opacity:0.45;stroke-width:1.5;"/>
   </g>
   <g id="line2d_15">
    <path clip-path="url(#p43c45fc326)" d="M 456.48 291.33 
L 575.52 291.33 
" style="fill:none;stroke:#262626;stroke-opacity:0.45;stroke-width:1.5;"/>
   </g>
   <g id="line2d_16">
    <path clip-path="url(#p43c45fc326)" d="M 605.28 291.33 
L 724.32 291.33 
" style="fill:none;stroke:#262626;stroke-opacity:0.45;stroke-width:1.5;"/>
   </g>
   <g id="line2d_17">
    <path clip-path="url(#p43c45fc326)" d="M 754.08 270.27 
L 873.12 270.27 
" style="fill:none;stroke:#262626;stroke-opacity:0.45;stroke-width:1.5;"/>
   </g>
   <g id="line2d_18">
    <path clip-path="url(#p43c45fc326)" d="M 902.88 217.62 
L 1021.92 217.62 
" style="fill:none;stroke:#262626;stroke-opacity:0.45;stroke-width:1.5;"/>
   </g>
   <g id="patch_4">
    <path d="M 144 702 
L 144 112.32 
" style="fill:none;stroke:#000000;stroke-linecap:square;stroke-linejoin:miter;stroke-width:0.8;"/>
   </g>
   <g id="patch_5">
    <path d="M 1036.8 702 
L 1036.8 112.32 
" style="fill:none;stroke:#000000;stroke-linecap:square;stroke-linejoin:miter;stroke-width:0.8;"/>
   </g>
   <g id="patch_6">
    <path d="M 144 702 
L 1036.8 702 
" style="fill:none;stroke:#000000;stroke-linecap:square;stroke-linejoin:miter;stroke-width:0.8;"/>
   </g>
   <g id="patch_7">
    <path d="M 144 112.32 
L 1036.8 112.32 
" style="fill:none;stroke:#000000;stroke-linecap:square;stroke-linejoin:miter;stroke-width:0.8;"/>
   </g>
   <g id="PathCollection_8">
    <defs>
     <path d="M 0 3 
C 0.795609 3 1.55874 2.683901 2.12132 2.12132 
C 2.683901 1.55874 3 0.795609 3 -0 
C 3 -0.795609 2.683901 -1.55874 2.12132 -2.12132 
C 1.55874 -2.683901 0.795609 -3 0 -3 
C -0.795609 -3 -1.55874 -2.683901 -2.12132 -2.12132 
C -2.683901 -1.55874 -3 -0.795609 -3 0 
C -3 0.795609 -2.683901 1.55874 -2.12132 2.12132 
C -1.55874 2.683901 -0.795609 3 0 3 
z
" id="C0_0_93641067fa"/>
    </defs>
    <g clip-path="url(#p43c45fc326)">
     <use style="stroke:#000000;stroke-width:0.3;" x="167.382857" xlink:href="#C0_0_93641067fa" y="238.68"/>
    </g>
    <g clip-path="url(#p43c45fc326)">
     <use style="stroke:#000000;stroke-width:0.3;" x="167.382857" xlink:href="#C0_0_93641067fa" y="365.04"/>
    </g>
    <g clip-path="url(#p43c45fc326)">
     <use style="stroke:#000000;stroke-width:0.3;" x="167.382857" xlink:href="#C0_0_93641067fa" y="449.28"/>
    </g>
    <g clip-path="url(#p43c45fc326)">
     <use style="stroke:#000000;stroke-width:0.3;" x="167.382857" xlink:href="#C0_0_93641067fa" y="575.64"/>
    </g>
   </g>
   <g id="PathCollection_9">
    <defs>
     <path d="M 0 3 
C 0.795609 3 1.55874 2.683901 2.12132 2.12132 
C 2.683901 1.55874 3 0.795609 3 -0 
C 3 -0.795609 2.683901 -1.55874 2.12132 -2.12132 
C 1.55874 -2.683901 0.795609 -3 0 -3 
C -0.795609 -3 -1.55874 -2.683901 -2.12132 -2.12132 
C -2.683901 -1.55874 -3 -0.795609 -3 0 
C -3 0.795609 -2.683901 1.55874 -2.12132 2.12132 
C -1.55874 2.683901 -0.795609 3 0 3 
z
" id="C1_0_503e787ba2"/>
    </defs>
    <g clip-path="url(#p43c45fc326)">
     <use style="fill:#00ffff;stroke:#000000;stroke-width:0.3;" x="184.388571" xlink:href="#C1_0_503e787ba2" y="249.21"/>
    </g>
    <g clip-path="url(#p43c45fc326)">
     <use style="fill:#00ffff;stroke:#000000;stroke-width:0.3;" x="184.388571" xlink:href="#C1_0_503e787ba2" y="280.8"/>
    </g>
    <g clip-path="url(#p43c45fc326)">
     <use style="fill:#00ffff;stroke:#000000;stroke-width:0.3;" x="184.388571" xlink:href="#C1_0_503e787ba2" y="407.16"/>
    </g>
    <g clip-path="url(#p43c45fc326)">
     <use style="fill:#00ffff;stroke:#000000;stroke-width:0.3;" x="184.388571" xlink:href="#C1_0_503e787ba2" y="428.22"/>
    </g>
    <g clip-path="url(#p43c45fc326)">
     <use style="fill:#00ffff;stroke:#000000;stroke-width:0.3;" x="184.388571" xlink:href="#C1_0_503e787ba2" y="470.34"/>
    </g>
    <g clip-path="url(#p43c45fc326)">
     <use style="fill:#00ffff;stroke:#000000;stroke-width:0.3;" x="184.388571" xlink:href="#C1_0_503e787ba2" y="491.4"/>
    </g>
    <g clip-path="url(#p43c45fc326)">
     <use style="fill:#00ffff;stroke:#000000;stroke-width:0.3;" x="184.388571" xlink:href="#C1_0_503e787ba2" y="544.05"/>
    </g>
    <g clip-path="url(#p43c45fc326)">
     <use style="fill:#00ffff;stroke:#000000;stroke-width:0.3;" x="184.388571" xlink:href="#C1_0_503e787ba2" y="554.58"/>
    </g>
   </g>
   <g id="PathCollection_10">
    <defs>
     <path d="M 0 3 
C 0.795609 3 1.55874 2.683901 2.12132 2.12132 
C 2.683901 1.55874 3 0.795609 3 -0 
C 3 -0.795609 2.683901 -1.55874 2.12132 -2.12132 
C 1.55874 -2.683901 0.795609 -3 0 -3 
C -0.795609 -3 -1.55874 -2.683901 -2.12132 -2.12132 
C -2.683901 -1.55874 -3 -0.795609 -3 0 
C -3 0.795609 -2.683901 1.55874 -2.12132 2.12132 
C -1.55874 2.683901 -0.795609 3 0 3 
z
" id="C2_0_d56c0d0e35"/>
    </defs>
    <g clip-path="url(#p43c45fc326)">
     <use style="fill:#6a5acd;stroke:#000000;stroke-width:0.3;" x="201.394286" xlink:href="#C2_0_d56c0d0e35" y="417.69"/>
    </g>
    <g clip-path="url(#p43c45fc326)">
     <use style="fill:#6a5acd;stroke:#000000;stroke-width:0.3;" x="201.394286" xlink:href="#C2_0_d56c0d0e35" y="470.34"/>
    </g>
   </g>
   <g id="PathCollection_11">
    <defs>
     <path d="M 0 3 
C 0.795609 3 1.55874 2.683901 2.12132 2.12132 
C 2.683901 1.55874 3 0.795609 3 -0 
C 3 -0.795609 2.683901 -1.55874 2.12132 -2.12132 
C 1.55874 -2.683901 0.795609 -3 0 -3 
C -0.795609 -3 -1.55874 -2.683901 -2.12132 -2.12132 
C -2.683901 -1.55874 -3 -0.795609 -3 0 
C -3 0.795609 -2.683901 1.55874 -2.12132 2.12132 
C -1.55874 2.683901 -0.795609 3 0 3 
z
" id="C3_0_be7e091530"/>
    </defs>
    <g clip-path="url(#p43c45fc326)">
     <use style="fill:#ff00ff;stroke:#000000;stroke-width:0.3;" x="218.4" xlink:href="#C3_0_be7e091530" y="164.97"/>
    </g>
    <g clip-path="url(#p43c45fc326)">
     <use style="fill:#ff00ff;stroke:#000000;stroke-width:0.3;" x="218.4" xlink:href="#C3_0_be7e091530" y="501.93"/>
    </g>
   </g>
   <g id="PathCollection_12">
    <defs>
     <path d="M 0 3 
C 0.795609 3 1.55874 2.683901 2.12132 2.12132 
C 2.683901 1.55874 3 0.795609 3 -0 
C 3 -0.795609 2.683901 -1.55874 2.12132 -2.12132 
C 1.55874 -2.683901 0.795609 -3 0 -3 
C -0.795609 -3 -1.55874 -2.683901 -2.12132 -2.12132 
C -2.683901 -1.55874 -3 -0.795609 -3 0 
C -3 0.795609 -2.683901 1.55874 -2.12132 2.12132 
C -1.55874 2.683901 -0.795609 3 0 3 
z
" id="C4_0_1d4ffc8fad"/>
    </defs>
    <g clip-path="url(#p43c45fc326)">
     <use style="fill:#808080;stroke:#000000;stroke-width:0.3;" x="235.405714" xlink:href="#C4_0_1d4ffc8fad" y="238.68"/>
    </g>
    <g clip-path="url(#p43c45fc326)">
     <use style="fill:#808080;stroke:#000000;stroke-width:0.3;" x="235.405714" xlink:href="#C4_0_1d4ffc8fad" y="249.21"/>
    </g>
    <g clip-path="url(#p43c45fc326)">
     <use style="fill:#808080;stroke:#000000;stroke-width:0.3;" x="235.405714" xlink:href="#C4_0_1d4ffc8fad" y="343.98"/>
    </g>
    <g clip-path="url(#p43c45fc326)">
     <use style="fill:#808080;stroke:#000000;stroke-width:0.3;" x="235.405714" xlink:href="#C4_0_1d4ffc8fad" y="417.69"/>
    </g>
   </g>
   <g id="PathCollection_13">
    <defs>
     <path d="M 0 3 
C 0.795609 3 1.55874 2.683901 2.12132 2.12132 
C 2.683901 1.55874 3 0.795609 3 -0 
C 3 -0.795609 2.683901 -1.55874 2.12132 -2.12132 
C 1.55874 -2.683901 0.795609 -3 0 -3 
C -0.795609 -3 -1.55874 -2.683901 -2.12132 -2.12132 
C -2.683901 -1.55874 -3 -0.795609 -3 0 
C -3 0.795609 -2.683901 1.55874 -2.12132 2.12132 
C -1.55874 2.683901 -0.795609 3 0 3 
z
" id="C5_0_507be7c349"/>
    </defs>
    <g clip-path="url(#p43c45fc326)">
     <use style="fill:#32cd32;stroke:#000000;stroke-width:0.3;" x="252.411429" xlink:href="#C5_0_507be7c349" y="186.03"/>
    </g>
    <g clip-path="url(#p43c45fc326)">
     <use style="fill:#32cd32;stroke:#000000;stroke-width:0.3;" x="252.411429" xlink:href="#C5_0_507be7c349" y="575.64"/>
    </g>
   </g>
   <g id="PathCollection_14">
    <defs>
     <path d="M 0 3 
C 0.795609 3 1.55874 2.683901 2.12132 2.12132 
C 2.683901 1.55874 3 0.795609 3 -0 
C 3 -0.795609 2.683901 -1.55874 2.12132 -2.12132 
C 1.55874 -2.683901 0.795609 -3 0 -3 
C -0.795609 -3 -1.55874 -2.683901 -2.12132 -2.12132 
C -2.683901 -1.55874 -3 -0.795609 -3 0 
C -3 0.795609 -2.683901 1.55874 -2.12132 2.12132 
C -1.55874 2.683901 -0.795609 3 0 3 
z
" id="C6_0_ecf1512bb9"/>
    </defs>
    <g clip-path="url(#p43c45fc326)">
     <use style="fill:#ffc0cb;stroke:#000000;stroke-width:0.3;" x="269.417143" xlink:href="#C6_0_ecf1512bb9" y="133.38"/>
    </g>
    <g clip-path="url(#p43c45fc326)">
     <use style="fill:#ffc0cb;stroke:#000000;stroke-width:0.3;" x="269.417143" xlink:href="#C6_0_ecf1512bb9" y="164.97"/>
    </g>
    <g clip-path="url(#p43c45fc326)">
     <use style="fill:#ffc0cb;stroke:#000000;stroke-width:0.3;" x="269.417143" xlink:href="#C6_0_ecf1512bb9" y="238.68"/>
    </g>
    <g clip-path="url(#p43c45fc326)">
     <use style="fill:#ffc0cb;stroke:#000000;stroke-width:0.3;" x="269.417143" xlink:href="#C6_0_ecf1512bb9" y="480.87"/>
    </g>
    <g clip-path="url(#p43c45fc326)">
     <use style="fill:#ffc0cb;stroke:#000000;stroke-width:0.3;" x="269.417143" xlink:href="#C6_0_ecf1512bb9" y="554.58"/>
    </g>
    <g clip-path="url(#p43c45fc326)">
     <use style="fill:#ffc0cb;stroke:#000000;stroke-width:0.3;" x="269.417143" xlink:href="#C6_0_ecf1512bb9" y="617.76"/>
    </g>
    <g clip-path="url(#p43c45fc326)">
     <use style="fill:#ffc0cb;stroke:#000000;stroke-width:0.3;" x="269.417143" xlink:href="#C6_0_ecf1512bb9" y="649.35"/>
    </g>
   </g>
   <g id="PathCollection_15">
    <defs>
     <path d="M 0 3 
C 0.795609 3 1.55874 2.683901 2.12132 2.12132 
C 2.683901 1.55874 3 0.795609 3 -0 
C 3 -0.795609 2.683901 -1.55874 2.12132 -2.12132 
C 1.55874 -2.683901 0.795609 -3 0 -3 
C -0.795609 -3 -1.55874 -2.683901 -2.12132 -2.12132 
C -2.683901 -1.55874 -3 -0.795609 -3 0 
C -3 0.795609 -2.683901 1.55874 -2.12132 2.12132 
C -1.55874 2.683901 -0.795609 3 0 3 
z
" id="C7_0_fadc49fb33"/>
    </defs>
    <g clip-path="url(#p43c45fc326)">
     <use style="stroke:#000000;stroke-width:0.3;" x="316.182857" xlink:href="#C7_0_fadc49fb33" y="417.69"/>
    </g>
    <g clip-path="url(#p43c45fc326)">
     <use style="stroke:#000000;stroke-width:0.3;" x="316.182857" xlink:href="#C7_0_fadc49fb33" y="438.75"/>
    </g>
    <g clip-path="url(#p43c45fc326)">
     <use style="stroke:#000000;stroke-width:0.3;" x="316.182857" xlink:href="#C7_0_fadc49fb33" y="449.28"/>
    </g>
    <g clip-path="url(#p43c45fc326)">
     <use style="stroke:#000000;stroke-width:0.3;" x="316.182857" xlink:href="#C7_0_fadc49fb33" y="522.99"/>
    </g>
   </g>
   <g id="PathCollection_16">
    <defs>
     <path d="M 0 3 
C 0.795609 3 1.55874 2.683901 2.12132 2.12132 
C 2.683901 1.55874 3 0.795609 3 -0 
C 3 -0.795609 2.683901 -1.55874 2.12132 -2.12132 
C 1.55874 -2.683901 0.795609 -3 0 -3 
C -0.795609 -3 -1.55874 -2.683901 -2.12132 -2.12132 
C -2.683901 -1.55874 -3 -0.795609 -3 0 
C -3 0.795609 -2.683901 1.55874 -2.12132 2.12132 
C -1.55874 2.683901 -0.795609 3 0 3 
z
" id="C8_0_d6151f4d68"/>
    </defs>
    <g clip-path="url(#p43c45fc326)">
     <use style="fill:#00ffff;stroke:#000000;stroke-width:0.3;" x="333.188571" xlink:href="#C8_0_d6151f4d68" y="133.38"/>
    </g>
    <g clip-path="url(#p43c45fc326)">
     <use style="fill:#00ffff;stroke:#000000;stroke-width:0.3;" x="333.188571" xlink:href="#C8_0_d6151f4d68" y="143.91"/>
    </g>
    <g clip-path="url(#p43c45fc326)">
     <use style="fill:#00ffff;stroke:#000000;stroke-width:0.3;" x="333.188571" xlink:href="#C8_0_d6151f4d68" y="154.44"/>
    </g>
    <g clip-path="url(#p43c45fc326)">
     <use style="fill:#00ffff;stroke:#000000;stroke-width:0.3;" x="333.188571" xlink:href="#C8_0_d6151f4d68" y="207.09"/>
    </g>
    <g clip-path="url(#p43c45fc326)">
     <use style="fill:#00ffff;stroke:#000000;stroke-width:0.3;" x="326.573571" xlink:href="#C8_0_d6151f4d68" y="207.09"/>
    </g>
    <g clip-path="url(#p43c45fc326)">
     <use style="fill:#00ffff;stroke:#000000;stroke-width:0.3;" x="333.188571" xlink:href="#C8_0_d6151f4d68" y="333.45"/>
    </g>
    <g clip-path="url(#p43c45fc326)">
     <use style="fill:#00ffff;stroke:#000000;stroke-width:0.3;" x="333.188571" xlink:href="#C8_0_d6151f4d68" y="343.98"/>
    </g>
    <g clip-path="url(#p43c45fc326)">
     <use style="fill:#00ffff;stroke:#000000;stroke-width:0.3;" x="333.188571" xlink:href="#C8_0_d6151f4d68" y="396.63"/>
    </g>
   </g>
   <g id="PathCollection_17">
    <defs>
     <path d="M 0 3 
C 0.795609 3 1.55874 2.683901 2.12132 2.12132 
C 2.683901 1.55874 3 0.795609 3 -0 
C 3 -0.795609 2.683901 -1.55874 2.12132 -2.12132 
C 1.55874 -2.683901 0.795609 -3 0 -3 
C -0.795609 -3 -1.55874 -2.683901 -2.12132 -2.12132 
C -2.683901 -1.55874 -3 -0.795609 -3 0 
C -3 0.795609 -2.683901 1.55874 -2.12132 2.12132 
C -1.55874 2.683901 -0.795609 3 0 3 
z
" id="C9_0_74759594e8"/>
    </defs>
    <g clip-path="url(#p43c45fc326)">
     <use style="fill:#6a5acd;stroke:#000000;stroke-width:0.3;" x="350.194286" xlink:href="#C9_0_74759594e8" y="301.86"/>
    </g>
    <g clip-path="url(#p43c45fc326)">
     <use style="fill:#6a5acd;stroke:#000000;stroke-width:0.3;" x="350.194286" xlink:href="#C9_0_74759594e8" y="322.92"/>
    </g>
   </g>
   <g id="PathCollection_18">
    <defs>
     <path d="M 0 3 
C 0.795609 3 1.55874 2.683901 2.12132 2.12132 
C 2.683901 1.55874 3 0.795609 3 -0 
C 3 -0.795609 2.683901 -1.55874 2.12132 -2.12132 
C 1.55874 -2.683901 0.795609 -3 0 -3 
C -0.795609 -3 -1.55874 -2.683901 -2.12132 -2.12132 
C -2.683901 -1.55874 -3 -0.795609 -3 0 
C -3 0.795609 -2.683901 1.55874 -2.12132 2.12132 
C -1.55874 2.683901 -0.795609 3 0 3 
z
" id="Ca_0_215d83b5e2"/>
    </defs>
    <g clip-path="url(#p43c45fc326)">
     <use style="fill:#ff00ff;stroke:#000000;stroke-width:0.3;" x="367.2" xlink:href="#Ca_0_215d83b5e2" y="238.68"/>
    </g>
    <g clip-path="url(#p43c45fc326)">
     <use style="fill:#ff00ff;stroke:#000000;stroke-width:0.3;" x="367.2" xlink:href="#Ca_0_215d83b5e2" y="343.98"/>
    </g>
   </g>
   <g id="PathCollection_19">
    <defs>
     <path d="M 0 3 
C 0.795609 3 1.55874 2.683901 2.12132 2.12132 
C 2.683901 1.55874 3 0.795609 3 -0 
C 3 -0.795609 2.683901 -1.55874 2.12132 -2.12132 
C 1.55874 -2.683901 0.795609 -3 0 -3 
C -0.795609 -3 -1.55874 -2.683901 -2.12132 -2.12132 
C -2.683901 -1.55874 -3 -0.795609 -3 0 
C -3 0.795609 -2.683901 1.55874 -2.12132 2.12132 
C -1.55874 2.683901 -0.795609 3 0 3 
z
" id="Cb_0_df909453e4"/>
    </defs>
    <g clip-path="url(#p43c45fc326)">
     <use style="fill:#808080;stroke:#000000;stroke-width:0.3;" x="384.205714" xlink:href="#Cb_0_df909453e4" y="207.09"/>
    </g>
    <g clip-path="url(#p43c45fc326)">
     <use style="fill:#808080;stroke:#000000;stroke-width:0.3;" x="384.205714" xlink:href="#Cb_0_df909453e4" y="259.74"/>
    </g>
    <g clip-path="url(#p43c45fc326)">
     <use style="fill:#808080;stroke:#000000;stroke-width:0.3;" x="384.205714" xlink:href="#Cb_0_df909453e4" y="333.45"/>
    </g>
    <g clip-path="url(#p43c45fc326)">
     <use style="fill:#808080;stroke:#000000;stroke-width:0.3;" x="384.205714" xlink:href="#Cb_0_df909453e4" y="396.63"/>
    </g>
   </g>
   <g id="PathCollection_20">
    <defs>
     <path d="M 0 3 
C 0.795609 3 1.55874 2.683901 2.12132 2.12132 
C 2.683901 1.55874 3 0.795609 3 -0 
C 3 -0.795609 2.683901 -1.55874 2.12132 -2.12132 
C 1.55874 -2.683901 0.795609 -3 0 -3 
C -0.795609 -3 -1.55874 -2.683901 -2.12132 -2.12132 
C -2.683901 -1.55874 -3 -0.795609 -3 0 
C -3 0.795609 -2.683901 1.55874 -2.12132 2.12132 
C -1.55874 2.683901 -0.795609 3 0 3 
z
" id="Cc_0_8ed2810c70"/>
    </defs>
    <g clip-path="url(#p43c45fc326)">
     <use style="fill:#32cd32;stroke:#000000;stroke-width:0.3;" x="401.211429" xlink:href="#Cc_0_8ed2810c70" y="217.62"/>
    </g>
    <g clip-path="url(#p43c45fc326)">
     <use style="fill:#32cd32;stroke:#000000;stroke-width:0.3;" x="401.211429" xlink:href="#Cc_0_8ed2810c70" y="449.28"/>
    </g>
   </g>
   <g id="PathCollection_21">
    <defs>
     <path d="M 0 3 
C 0.795609 3 1.55874 2.683901 2.12132 2.12132 
C 2.683901 1.55874 3 0.795609 3 -0 
C 3 -0.795609 2.683901 -1.55874 2.12132 -2.12132 
C 1.55874 -2.683901 0.795609 -3 0 -3 
C -0.795609 -3 -1.55874 -2.683901 -2.12132 -2.12132 
C -2.683901 -1.55874 -3 -0.795609 -3 0 
C -3 0.795609 -2.683901 1.55874 -2.12132 2.12132 
C -1.55874 2.683901 -0.795609 3 0 3 
z
" id="Cd_0_10e9d4c877"/>
    </defs>
    <g clip-path="url(#p43c45fc326)">
     <use style="fill:#ffc0cb;stroke:#000000;stroke-width:0.3;" x="418.217143" xlink:href="#Cd_0_10e9d4c877" y="122.85"/>
    </g>
    <g clip-path="url(#p43c45fc326)">
     <use style="fill:#ffc0cb;stroke:#000000;stroke-width:0.3;" x="411.602143" xlink:href="#Cd_0_10e9d4c877" y="122.85"/>
    </g>
    <g clip-path="url(#p43c45fc326)">
     <use style="fill:#ffc0cb;stroke:#000000;stroke-width:0.3;" x="418.217143" xlink:href="#Cd_0_10e9d4c877" y="133.38"/>
    </g>
    <g clip-path="url(#p43c45fc326)">
     <use style="fill:#ffc0cb;stroke:#000000;stroke-width:0.3;" x="411.602143" xlink:href="#Cd_0_10e9d4c877" y="133.38"/>
    </g>
    <g clip-path="url(#p43c45fc326)">
     <use style="fill:#ffc0cb;stroke:#000000;stroke-width:0.3;" x="418.217143" xlink:href="#Cd_0_10e9d4c877" y="143.91"/>
    </g>
    <g clip-path="url(#p43c45fc326)">
     <use style="fill:#ffc0cb;stroke:#000000;stroke-width:0.3;" x="418.217143" xlink:href="#Cd_0_10e9d4c877" y="617.76"/>
    </g>
    <g clip-path="url(#p43c45fc326)">
     <use style="fill:#ffc0cb;stroke:#000000;stroke-width:0.3;" x="418.217143" xlink:href="#Cd_0_10e9d4c877" y="638.82"/>
    </g>
   </g>
   <g id="PathCollection_22">
    <defs>
     <path d="M 0 3 
C 0.795609 3 1.55874 2.683901 2.12132 2.12132 
C 2.683901 1.55874 3 0.795609 3 -0 
C 3 -0.795609 2.683901 -1.55874 2.12132 -2.12132 
C 1.55874 -2.683901 0.795609 -3 0 -3 
C -0.795609 -3 -1.55874 -2.683901 -2.12132 -2.12132 
C -2.683901 -1.55874 -3 -0.795609 -3 0 
C -3 0.795609 -2.683901 1.55874 -2.12132 2.12132 
C -1.55874 2.683901 -0.795609 3 0 3 
z
" id="Ce_0_798422b0e9"/>
    </defs>
    <g clip-path="url(#p43c45fc326)">
     <use style="stroke:#000000;stroke-width:0.3;" x="464.982857" xlink:href="#Ce_0_798422b0e9" y="386.1"/>
    </g>
    <g clip-path="url(#p43c45fc326)">
     <use style="stroke:#000000;stroke-width:0.3;" x="464.982857" xlink:href="#Ce_0_798422b0e9" y="396.63"/>
    </g>
    <g clip-path="url(#p43c45fc326)">
     <use style="stroke:#000000;stroke-width:0.3;" x="464.982857" xlink:href="#Ce_0_798422b0e9" y="470.34"/>
    </g>
    <g clip-path="url(#p43c45fc326)">
     <use style="stroke:#000000;stroke-width:0.3;" x="464.982857" xlink:href="#Ce_0_798422b0e9" y="501.93"/>
    </g>
   </g>
   <g id="PathCollection_23">
    <defs>
     <path d="M 0 3 
C 0.795609 3 1.55874 2.683901 2.12132 2.12132 
C 2.683901 1.55874 3 0.795609 3 -0 
C 3 -0.795609 2.683901 -1.55874 2.12132 -2.12132 
C 1.55874 -2.683901 0.795609 -3 0 -3 
C -0.795609 -3 -1.55874 -2.683901 -2.12132 -2.12132 
C -2.683901 -1.55874 -3 -0.795609 -3 0 
C -3 0.795609 -2.683901 1.55874 -2.12132 2.12132 
C -1.55874 2.683901 -0.795609 3 0 3 
z
" id="Cf_0_d8f4d6924e"/>
    </defs>
    <g clip-path="url(#p43c45fc326)">
     <use style="fill:#00ffff;stroke:#000000;stroke-width:0.3;" x="481.988571" xlink:href="#Cf_0_d8f4d6924e" y="133.38"/>
    </g>
    <g clip-path="url(#p43c45fc326)">
     <use style="fill:#00ffff;stroke:#000000;stroke-width:0.3;" x="475.373571" xlink:href="#Cf_0_d8f4d6924e" y="133.38"/>
    </g>
    <g clip-path="url(#p43c45fc326)">
     <use style="fill:#00ffff;stroke:#000000;stroke-width:0.3;" x="481.988571" xlink:href="#Cf_0_d8f4d6924e" y="154.44"/>
    </g>
    <g clip-path="url(#p43c45fc326)">
     <use style="fill:#00ffff;stroke:#000000;stroke-width:0.3;" x="481.988571" xlink:href="#Cf_0_d8f4d6924e" y="186.03"/>
    </g>
    <g clip-path="url(#p43c45fc326)">
     <use style="fill:#00ffff;stroke:#000000;stroke-width:0.3;" x="481.988571" xlink:href="#Cf_0_d8f4d6924e" y="196.56"/>
    </g>
    <g clip-path="url(#p43c45fc326)">
     <use style="fill:#00ffff;stroke:#000000;stroke-width:0.3;" x="481.988571" xlink:href="#Cf_0_d8f4d6924e" y="312.39"/>
    </g>
    <g clip-path="url(#p43c45fc326)">
     <use style="fill:#00ffff;stroke:#000000;stroke-width:0.3;" x="481.988571" xlink:href="#Cf_0_d8f4d6924e" y="333.45"/>
    </g>
    <g clip-path="url(#p43c45fc326)">
     <use style="fill:#00ffff;stroke:#000000;stroke-width:0.3;" x="481.988571" xlink:href="#Cf_0_d8f4d6924e" y="522.99"/>
    </g>
   </g>
   <g id="PathCollection_24">
    <defs>
     <path d="M 0 3 
C 0.795609 3 1.55874 2.683901 2.12132 2.12132 
C 2.683901 1.55874 3 0.795609 3 -0 
C 3 -0.795609 2.683901 -1.55874 2.12132 -2.12132 
C 1.55874 -2.683901 0.795609 -3 0 -3 
C -0.795609 -3 -1.55874 -2.683901 -2.12132 -2.12132 
C -2.683901 -1.55874 -3 -0.795609 -3 0 
C -3 0.795609 -2.683901 1.55874 -2.12132 2.12132 
C -1.55874 2.683901 -0.795609 3 0 3 
z
" id="C10_0_12a0e29baa"/>
    </defs>
    <g clip-path="url(#p43c45fc326)">
     <use style="fill:#6a5acd;stroke:#000000;stroke-width:0.3;" x="498.994286" xlink:href="#C10_0_12a0e29baa" y="259.74"/>
    </g>
    <g clip-path="url(#p43c45fc326)">
     <use style="fill:#6a5acd;stroke:#000000;stroke-width:0.3;" x="498.994286" xlink:href="#C10_0_12a0e29baa" y="291.33"/>
    </g>
   </g>
   <g id="PathCollection_25">
    <defs>
     <path d="M 0 3 
C 0.795609 3 1.55874 2.683901 2.12132 2.12132 
C 2.683901 1.55874 3 0.795609 3 -0 
C 3 -0.795609 2.683901 -1.55874 2.12132 -2.12132 
C 1.55874 -2.683901 0.795609 -3 0 -3 
C -0.795609 -3 -1.55874 -2.683901 -2.12132 -2.12132 
C -2.683901 -1.55874 -3 -0.795609 -3 0 
C -3 0.795609 -2.683901 1.55874 -2.12132 2.12132 
C -1.55874 2.683901 -0.795609 3 0 3 
z
" id="C11_0_b6bc7c3949"/>
    </defs>
    <g clip-path="url(#p43c45fc326)">
     <use style="fill:#ff00ff;stroke:#000000;stroke-width:0.3;" x="516" xlink:href="#C11_0_b6bc7c3949" y="228.15"/>
    </g>
    <g clip-path="url(#p43c45fc326)">
     <use style="fill:#ff00ff;stroke:#000000;stroke-width:0.3;" x="516" xlink:href="#C11_0_b6bc7c3949" y="333.45"/>
    </g>
   </g>
   <g id="PathCollection_26">
    <defs>
     <path d="M 0 3 
C 0.795609 3 1.55874 2.683901 2.12132 2.12132 
C 2.683901 1.55874 3 0.795609 3 -0 
C 3 -0.795609 2.683901 -1.55874 2.12132 -2.12132 
C 1.55874 -2.683901 0.795609 -3 0 -3 
C -0.795609 -3 -1.55874 -2.683901 -2.12132 -2.12132 
C -2.683901 -1.55874 -3 -0.795609 -3 0 
C -3 0.795609 -2.683901 1.55874 -2.12132 2.12132 
C -1.55874 2.683901 -0.795609 3 0 3 
z
" id="C12_0_166343bdb0"/>
    </defs>
    <g clip-path="url(#p43c45fc326)">
     <use style="fill:#808080;stroke:#000000;stroke-width:0.3;" x="533.005714" xlink:href="#C12_0_166343bdb0" y="186.03"/>
    </g>
    <g clip-path="url(#p43c45fc326)">
     <use style="fill:#808080;stroke:#000000;stroke-width:0.3;" x="533.005714" xlink:href="#C12_0_166343bdb0" y="354.51"/>
    </g>
    <g clip-path="url(#p43c45fc326)">
     <use style="fill:#808080;stroke:#000000;stroke-width:0.3;" x="526.390714" xlink:href="#C12_0_166343bdb0" y="354.51"/>
    </g>
    <g clip-path="url(#p43c45fc326)">
     <use style="fill:#808080;stroke:#000000;stroke-width:0.3;" x="533.005714" xlink:href="#C12_0_166343bdb0" y="375.57"/>
    </g>
   </g>
   <g id="PathCollection_27">
    <defs>
     <path d="M 0 3 
C 0.795609 3 1.55874 2.683901 2.12132 2.12132 
C 2.683901 1.55874 3 0.795609 3 -0 
C 3 -0.795609 2.683901 -1.55874 2.12132 -2.12132 
C 1.55874 -2.683901 0.795609 -3 0 -3 
C -0.795609 -3 -1.55874 -2.683901 -2.12132 -2.12132 
C -2.683901 -1.55874 -3 -0.795609 -3 0 
C -3 0.795609 -2.683901 1.55874 -2.12132 2.12132 
C -1.55874 2.683901 -0.795609 3 0 3 
z
" id="C13_0_aca2d2b829"/>
    </defs>
    <g clip-path="url(#p43c45fc326)">
     <use style="fill:#32cd32;stroke:#000000;stroke-width:0.3;" x="550.011429" xlink:href="#C13_0_aca2d2b829" y="207.09"/>
    </g>
    <g clip-path="url(#p43c45fc326)">
     <use style="fill:#32cd32;stroke:#000000;stroke-width:0.3;" x="550.011429" xlink:href="#C13_0_aca2d2b829" y="407.16"/>
    </g>
   </g>
   <g id="PathCollection_28">
    <defs>
     <path d="M 0 3 
C 0.795609 3 1.55874 2.683901 2.12132 2.12132 
C 2.683901 1.55874 3 0.795609 3 -0 
C 3 -0.795609 2.683901 -1.55874 2.12132 -2.12132 
C 1.55874 -2.683901 0.795609 -3 0 -3 
C -0.795609 -3 -1.55874 -2.683901 -2.12132 -2.12132 
C -2.683901 -1.55874 -3 -0.795609 -3 0 
C -3 0.795609 -2.683901 1.55874 -2.12132 2.12132 
C -1.55874 2.683901 -0.795609 3 0 3 
z
" id="C14_0_28ef916439"/>
    </defs>
    <g clip-path="url(#p43c45fc326)">
     <use style="fill:#ffc0cb;stroke:#000000;stroke-width:0.3;" x="567.017143" xlink:href="#C14_0_28ef916439" y="122.85"/>
    </g>
    <g clip-path="url(#p43c45fc326)">
     <use style="fill:#ffc0cb;stroke:#000000;stroke-width:0.3;" x="560.402143" xlink:href="#C14_0_28ef916439" y="122.85"/>
    </g>
    <g clip-path="url(#p43c45fc326)">
     <use style="fill:#ffc0cb;stroke:#000000;stroke-width:0.3;" x="567.017143" xlink:href="#C14_0_28ef916439" y="133.38"/>
    </g>
    <g clip-path="url(#p43c45fc326)">
     <use style="fill:#ffc0cb;stroke:#000000;stroke-width:0.3;" x="560.402143" xlink:href="#C14_0_28ef916439" y="133.38"/>
    </g>
    <g clip-path="url(#p43c45fc326)">
     <use style="fill:#ffc0cb;stroke:#000000;stroke-width:0.3;" x="567.017143" xlink:href="#C14_0_28ef916439" y="143.91"/>
    </g>
    <g clip-path="url(#p43c45fc326)">
     <use style="fill:#ffc0cb;stroke:#000000;stroke-width:0.3;" x="567.017143" xlink:href="#C14_0_28ef916439" y="596.7"/>
    </g>
    <g clip-path="url(#p43c45fc326)">
     <use style="fill:#ffc0cb;stroke:#000000;stroke-width:0.3;" x="567.017143" xlink:href="#C14_0_28ef916439" y="628.29"/>
    </g>
   </g>
   <g id="PathCollection_29">
    <defs>
     <path d="M 0 3 
C 0.795609 3 1.55874 2.683901 2.12132 2.12132 
C 2.683901 1.55874 3 0.795609 3 -0 
C 3 -0.795609 2.683901 -1.55874 2.12132 -2.12132 
C 1.55874 -2.683901 0.795609 -3 0 -3 
C -0.795609 -3 -1.55874 -2.683901 -2.12132 -2.12132 
C -2.683901 -1.55874 -3 -0.795609 -3 0 
C -3 0.795609 -2.683901 1.55874 -2.12132 2.12132 
C -1.55874 2.683901 -0.795609 3 0 3 
z
" id="C15_0_f081bef9a5"/>
    </defs>
    <g clip-path="url(#p43c45fc326)">
     <use style="stroke:#000000;stroke-width:0.3;" x="613.782857" xlink:href="#C15_0_f081bef9a5" y="196.56"/>
    </g>
    <g clip-path="url(#p43c45fc326)">
     <use style="stroke:#000000;stroke-width:0.3;" x="613.782857" xlink:href="#C15_0_f081bef9a5" y="259.74"/>
    </g>
    <g clip-path="url(#p43c45fc326)">
     <use style="stroke:#000000;stroke-width:0.3;" x="613.782857" xlink:href="#C15_0_f081bef9a5" y="291.33"/>
    </g>
    <g clip-path="url(#p43c45fc326)">
     <use style="stroke:#000000;stroke-width:0.3;" x="613.782857" xlink:href="#C15_0_f081bef9a5" y="343.98"/>
    </g>
   </g>
   <g id="PathCollection_30">
    <defs>
     <path d="M 0 3 
C 0.795609 3 1.55874 2.683901 2.12132 2.12132 
C 2.683901 1.55874 3 0.795609 3 -0 
C 3 -0.795609 2.683901 -1.55874 2.12132 -2.12132 
C 1.55874 -2.683901 0.795609 -3 0 -3 
C -0.795609 -3 -1.55874 -2.683901 -2.12132 -2.12132 
C -2.683901 -1.55874 -3 -0.795609 -3 0 
C -3 0.795609 -2.683901 1.55874 -2.12132 2.12132 
C -1.55874 2.683901 -0.795609 3 0 3 
z
" id="C16_0_b09f9da784"/>
    </defs>
    <g clip-path="url(#p43c45fc326)">
     <use style="fill:#00ffff;stroke:#000000;stroke-width:0.3;" x="630.788571" xlink:href="#C16_0_b09f9da784" y="122.85"/>
    </g>
    <g clip-path="url(#p43c45fc326)">
     <use style="fill:#00ffff;stroke:#000000;stroke-width:0.3;" x="624.173571" xlink:href="#C16_0_b09f9da784" y="122.85"/>
    </g>
    <g clip-path="url(#p43c45fc326)">
     <use style="fill:#00ffff;stroke:#000000;stroke-width:0.3;" x="630.788571" xlink:href="#C16_0_b09f9da784" y="133.38"/>
    </g>
    <g clip-path="url(#p43c45fc326)">
     <use style="fill:#00ffff;stroke:#000000;stroke-width:0.3;" x="630.788571" xlink:href="#C16_0_b09f9da784" y="343.98"/>
    </g>
    <g clip-path="url(#p43c45fc326)">
     <use style="fill:#00ffff;stroke:#000000;stroke-width:0.3;" x="630.788571" xlink:href="#C16_0_b09f9da784" y="407.16"/>
    </g>
    <g clip-path="url(#p43c45fc326)">
     <use style="fill:#00ffff;stroke:#000000;stroke-width:0.3;" x="630.788571" xlink:href="#C16_0_b09f9da784" y="544.05"/>
    </g>
    <g clip-path="url(#p43c45fc326)">
     <use style="fill:#00ffff;stroke:#000000;stroke-width:0.3;" x="624.173571" xlink:href="#C16_0_b09f9da784" y="544.05"/>
    </g>
    <g clip-path="url(#p43c45fc326)">
     <use style="fill:#00ffff;stroke:#000000;stroke-width:0.3;" x="630.788571" xlink:href="#C16_0_b09f9da784" y="628.29"/>
    </g>
   </g>
   <g id="PathCollection_31">
    <defs>
     <path d="M 0 3 
C 0.795609 3 1.55874 2.683901 2.12132 2.12132 
C 2.683901 1.55874 3 0.795609 3 -0 
C 3 -0.795609 2.683901 -1.55874 2.12132 -2.12132 
C 1.55874 -2.683901 0.795609 -3 0 -3 
C -0.795609 -3 -1.55874 -2.683901 -2.12132 -2.12132 
C -2.683901 -1.55874 -3 -0.795609 -3 0 
C -3 0.795609 -2.683901 1.55874 -2.12132 2.12132 
C -1.55874 2.683901 -0.795609 3 0 3 
z
" id="C17_0_7c8c36fe6d"/>
    </defs>
    <g clip-path="url(#p43c45fc326)">
     <use style="fill:#6a5acd;stroke:#000000;stroke-width:0.3;" x="647.794286" xlink:href="#C17_0_7c8c36fe6d" y="238.68"/>
    </g>
    <g clip-path="url(#p43c45fc326)">
     <use style="fill:#6a5acd;stroke:#000000;stroke-width:0.3;" x="647.794286" xlink:href="#C17_0_7c8c36fe6d" y="333.45"/>
    </g>
   </g>
   <g id="PathCollection_32">
    <defs>
     <path d="M 0 3 
C 0.795609 3 1.55874 2.683901 2.12132 2.12132 
C 2.683901 1.55874 3 0.795609 3 -0 
C 3 -0.795609 2.683901 -1.55874 2.12132 -2.12132 
C 1.55874 -2.683901 0.795609 -3 0 -3 
C -0.795609 -3 -1.55874 -2.683901 -2.12132 -2.12132 
C -2.683901 -1.55874 -3 -0.795609 -3 0 
C -3 0.795609 -2.683901 1.55874 -2.12132 2.12132 
C -1.55874 2.683901 -0.795609 3 0 3 
z
" id="C18_0_9c0d486e8f"/>
    </defs>
    <g clip-path="url(#p43c45fc326)">
     <use style="fill:#ff00ff;stroke:#000000;stroke-width:0.3;" x="664.8" xlink:href="#C18_0_9c0d486e8f" y="428.22"/>
    </g>
    <g clip-path="url(#p43c45fc326)">
     <use style="fill:#ff00ff;stroke:#000000;stroke-width:0.3;" x="664.8" xlink:href="#C18_0_9c0d486e8f" y="533.52"/>
    </g>
   </g>
   <g id="PathCollection_33">
    <defs>
     <path d="M 0 3 
C 0.795609 3 1.55874 2.683901 2.12132 2.12132 
C 2.683901 1.55874 3 0.795609 3 -0 
C 3 -0.795609 2.683901 -1.55874 2.12132 -2.12132 
C 1.55874 -2.683901 0.795609 -3 0 -3 
C -0.795609 -3 -1.55874 -2.683901 -2.12132 -2.12132 
C -2.683901 -1.55874 -3 -0.795609 -3 0 
C -3 0.795609 -2.683901 1.55874 -2.12132 2.12132 
C -1.55874 2.683901 -0.795609 3 0 3 
z
" id="C19_0_1cc98419d2"/>
    </defs>
    <g clip-path="url(#p43c45fc326)">
     <use style="fill:#808080;stroke:#000000;stroke-width:0.3;" x="681.805714" xlink:href="#C19_0_1cc98419d2" y="259.74"/>
    </g>
    <g clip-path="url(#p43c45fc326)">
     <use style="fill:#808080;stroke:#000000;stroke-width:0.3;" x="681.805714" xlink:href="#C19_0_1cc98419d2" y="396.63"/>
    </g>
    <g clip-path="url(#p43c45fc326)">
     <use style="fill:#808080;stroke:#000000;stroke-width:0.3;" x="681.805714" xlink:href="#C19_0_1cc98419d2" y="449.28"/>
    </g>
    <g clip-path="url(#p43c45fc326)">
     <use style="fill:#808080;stroke:#000000;stroke-width:0.3;" x="681.805714" xlink:href="#C19_0_1cc98419d2" y="491.4"/>
    </g>
   </g>
   <g id="PathCollection_34">
    <defs>
     <path d="M 0 3 
C 0.795609 3 1.55874 2.683901 2.12132 2.12132 
C 2.683901 1.55874 3 0.795609 3 -0 
C 3 -0.795609 2.683901 -1.55874 2.12132 -2.12132 
C 1.55874 -2.683901 0.795609 -3 0 -3 
C -0.795609 -3 -1.55874 -2.683901 -2.12132 -2.12132 
C -2.683901 -1.55874 -3 -0.795609 -3 0 
C -3 0.795609 -2.683901 1.55874 -2.12132 2.12132 
C -1.55874 2.683901 -0.795609 3 0 3 
z
" id="C1a_0_52cc793d03"/>
    </defs>
    <g clip-path="url(#p43c45fc326)">
     <use style="fill:#32cd32;stroke:#000000;stroke-width:0.3;" x="698.811429" xlink:href="#C1a_0_52cc793d03" y="186.03"/>
    </g>
    <g clip-path="url(#p43c45fc326)">
     <use style="fill:#32cd32;stroke:#000000;stroke-width:0.3;" x="698.811429" xlink:href="#C1a_0_52cc793d03" y="259.74"/>
    </g>
   </g>
   <g id="PathCollection_35">
    <defs>
     <path d="M 0 3 
C 0.795609 3 1.55874 2.683901 2.12132 2.12132 
C 2.683901 1.55874 3 0.795609 3 -0 
C 3 -0.795609 2.683901 -1.55874 2.12132 -2.12132 
C 1.55874 -2.683901 0.795609 -3 0 -3 
C -0.795609 -3 -1.55874 -2.683901 -2.12132 -2.12132 
C -2.683901 -1.55874 -3 -0.795609 -3 0 
C -3 0.795609 -2.683901 1.55874 -2.12132 2.12132 
C -1.55874 2.683901 -0.795609 3 0 3 
z
" id="C1b_0_cccc9a1641"/>
    </defs>
    <g clip-path="url(#p43c45fc326)">
     <use style="fill:#ffc0cb;stroke:#000000;stroke-width:0.3;" x="715.817143" xlink:href="#C1b_0_cccc9a1641" y="133.38"/>
    </g>
    <g clip-path="url(#p43c45fc326)">
     <use style="fill:#ffc0cb;stroke:#000000;stroke-width:0.3;" x="715.817143" xlink:href="#C1b_0_cccc9a1641" y="175.5"/>
    </g>
    <g clip-path="url(#p43c45fc326)">
     <use style="fill:#ffc0cb;stroke:#000000;stroke-width:0.3;" x="715.817143" xlink:href="#C1b_0_cccc9a1641" y="196.56"/>
    </g>
    <g clip-path="url(#p43c45fc326)">
     <use style="fill:#ffc0cb;stroke:#000000;stroke-width:0.3;" x="715.817143" xlink:href="#C1b_0_cccc9a1641" y="228.15"/>
    </g>
    <g clip-path="url(#p43c45fc326)">
     <use style="fill:#ffc0cb;stroke:#000000;stroke-width:0.3;" x="715.817143" xlink:href="#C1b_0_cccc9a1641" y="238.68"/>
    </g>
    <g clip-path="url(#p43c45fc326)">
     <use style="fill:#ffc0cb;stroke:#000000;stroke-width:0.3;" x="715.817143" xlink:href="#C1b_0_cccc9a1641" y="322.92"/>
    </g>
    <g clip-path="url(#p43c45fc326)">
     <use style="fill:#ffc0cb;stroke:#000000;stroke-width:0.3;" x="715.817143" xlink:href="#C1b_0_cccc9a1641" y="628.29"/>
    </g>
   </g>
   <g id="PathCollection_36">
    <defs>
     <path d="M 0 3 
C 0.795609 3 1.55874 2.683901 2.12132 2.12132 
C 2.683901 1.55874 3 0.795609 3 -0 
C 3 -0.795609 2.683901 -1.55874 2.12132 -2.12132 
C 1.55874 -2.683901 0.795609 -3 0 -3 
C -0.795609 -3 -1.55874 -2.683901 -2.12132 -2.12132 
C -2.683901 -1.55874 -3 -0.795609 -3 0 
C -3 0.795609 -2.683901 1.55874 -2.12132 2.12132 
C -1.55874 2.683901 -0.795609 3 0 3 
z
" id="C1c_0_77888bd0fd"/>
    </defs>
    <g clip-path="url(#p43c45fc326)">
     <use style="stroke:#000000;stroke-width:0.3;" x="762.582857" xlink:href="#C1c_0_77888bd0fd" y="207.09"/>
    </g>
    <g clip-path="url(#p43c45fc326)">
     <use style="stroke:#000000;stroke-width:0.3;" x="762.582857" xlink:href="#C1c_0_77888bd0fd" y="228.15"/>
    </g>
    <g clip-path="url(#p43c45fc326)">
     <use style="stroke:#000000;stroke-width:0.3;" x="762.582857" xlink:href="#C1c_0_77888bd0fd" y="270.27"/>
    </g>
    <g clip-path="url(#p43c45fc326)">
     <use style="stroke:#000000;stroke-width:0.3;" x="762.582857" xlink:href="#C1c_0_77888bd0fd" y="322.92"/>
    </g>
   </g>
   <g id="PathCollection_37">
    <defs>
     <path d="M 0 3 
C 0.795609 3 1.55874 2.683901 2.12132 2.12132 
C 2.683901 1.55874 3 0.795609 3 -0 
C 3 -0.795609 2.683901 -1.55874 2.12132 -2.12132 
C 1.55874 -2.683901 0.795609 -3 0 -3 
C -0.795609 -3 -1.55874 -2.683901 -2.12132 -2.12132 
C -2.683901 -1.55874 -3 -0.795609 -3 0 
C -3 0.795609 -2.683901 1.55874 -2.12132 2.12132 
C -1.55874 2.683901 -0.795609 3 0 3 
z
" id="C1d_0_7dff8b380d"/>
    </defs>
    <g clip-path="url(#p43c45fc326)">
     <use style="fill:#00ffff;stroke:#000000;stroke-width:0.3;" x="779.588571" xlink:href="#C1d_0_7dff8b380d" y="122.85"/>
    </g>
    <g clip-path="url(#p43c45fc326)">
     <use style="fill:#00ffff;stroke:#000000;stroke-width:0.3;" x="779.588571" xlink:href="#C1d_0_7dff8b380d" y="133.38"/>
    </g>
    <g clip-path="url(#p43c45fc326)">
     <use style="fill:#00ffff;stroke:#000000;stroke-width:0.3;" x="779.588571" xlink:href="#C1d_0_7dff8b380d" y="238.68"/>
    </g>
    <g clip-path="url(#p43c45fc326)">
     <use style="fill:#00ffff;stroke:#000000;stroke-width:0.3;" x="779.588571" xlink:href="#C1d_0_7dff8b380d" y="270.27"/>
    </g>
    <g clip-path="url(#p43c45fc326)">
     <use style="fill:#00ffff;stroke:#000000;stroke-width:0.3;" x="779.588571" xlink:href="#C1d_0_7dff8b380d" y="280.8"/>
    </g>
    <g clip-path="url(#p43c45fc326)">
     <use style="fill:#00ffff;stroke:#000000;stroke-width:0.3;" x="779.588571" xlink:href="#C1d_0_7dff8b380d" y="301.86"/>
    </g>
    <g clip-path="url(#p43c45fc326)">
     <use style="fill:#00ffff;stroke:#000000;stroke-width:0.3;" x="779.588571" xlink:href="#C1d_0_7dff8b380d" y="333.45"/>
    </g>
    <g clip-path="url(#p43c45fc326)">
     <use style="fill:#00ffff;stroke:#000000;stroke-width:0.3;" x="779.588571" xlink:href="#C1d_0_7dff8b380d" y="459.81"/>
    </g>
   </g>
   <g id="PathCollection_38">
    <defs>
     <path d="M 0 3 
C 0.795609 3 1.55874 2.683901 2.12132 2.12132 
C 2.683901 1.55874 3 0.795609 3 -0 
C 3 -0.795609 2.683901 -1.55874 2.12132 -2.12132 
C 1.55874 -2.683901 0.795609 -3 0 -3 
C -0.795609 -3 -1.55874 -2.683901 -2.12132 -2.12132 
C -2.683901 -1.55874 -3 -0.795609 -3 0 
C -3 0.795609 -2.683901 1.55874 -2.12132 2.12132 
C -1.55874 2.683901 -0.795609 3 0 3 
z
" id="C1e_0_c46448c9e7"/>
    </defs>
    <g clip-path="url(#p43c45fc326)">
     <use style="fill:#6a5acd;stroke:#000000;stroke-width:0.3;" x="796.594286" xlink:href="#C1e_0_c46448c9e7" y="238.68"/>
    </g>
    <g clip-path="url(#p43c45fc326)">
     <use style="fill:#6a5acd;stroke:#000000;stroke-width:0.3;" x="796.594286" xlink:href="#C1e_0_c46448c9e7" y="270.27"/>
    </g>
   </g>
   <g id="PathCollection_39">
    <defs>
     <path d="M 0 3 
C 0.795609 3 1.55874 2.683901 2.12132 2.12132 
C 2.683901 1.55874 3 0.795609 3 -0 
C 3 -0.795609 2.683901 -1.55874 2.12132 -2.12132 
C 1.55874 -2.683901 0.795609 -3 0 -3 
C -0.795609 -3 -1.55874 -2.683901 -2.12132 -2.12132 
C -2.683901 -1.55874 -3 -0.795609 -3 0 
C -3 0.795609 -2.683901 1.55874 -2.12132 2.12132 
C -1.55874 2.683901 -0.795609 3 0 3 
z
" id="C1f_0_4ddd53e9d4"/>
    </defs>
    <g clip-path="url(#p43c45fc326)">
     <use style="fill:#ff00ff;stroke:#000000;stroke-width:0.3;" x="813.6" xlink:href="#C1f_0_4ddd53e9d4" y="407.16"/>
    </g>
    <g clip-path="url(#p43c45fc326)">
     <use style="fill:#ff00ff;stroke:#000000;stroke-width:0.3;" x="813.6" xlink:href="#C1f_0_4ddd53e9d4" y="501.93"/>
    </g>
   </g>
   <g id="PathCollection_40">
    <defs>
     <path d="M 0 3 
C 0.795609 3 1.55874 2.683901 2.12132 2.12132 
C 2.683901 1.55874 3 0.795609 3 -0 
C 3 -0.795609 2.683901 -1.55874 2.12132 -2.12132 
C 1.55874 -2.683901 0.795609 -3 0 -3 
C -0.795609 -3 -1.55874 -2.683901 -2.12132 -2.12132 
C -2.683901 -1.55874 -3 -0.795609 -3 0 
C -3 0.795609 -2.683901 1.55874 -2.12132 2.12132 
C -1.55874 2.683901 -0.795609 3 0 3 
z
" id="C20_0_c551ef5aef"/>
    </defs>
    <g clip-path="url(#p43c45fc326)">
     <use style="fill:#808080;stroke:#000000;stroke-width:0.3;" x="830.605714" xlink:href="#C20_0_c551ef5aef" y="154.44"/>
    </g>
    <g clip-path="url(#p43c45fc326)">
     <use style="fill:#808080;stroke:#000000;stroke-width:0.3;" x="830.605714" xlink:href="#C20_0_c551ef5aef" y="196.56"/>
    </g>
    <g clip-path="url(#p43c45fc326)">
     <use style="fill:#808080;stroke:#000000;stroke-width:0.3;" x="830.605714" xlink:href="#C20_0_c551ef5aef" y="354.51"/>
    </g>
    <g clip-path="url(#p43c45fc326)">
     <use style="fill:#808080;stroke:#000000;stroke-width:0.3;" x="830.605714" xlink:href="#C20_0_c551ef5aef" y="428.22"/>
    </g>
   </g>
   <g id="PathCollection_41">
    <defs>
     <path d="M 0 3 
C 0.795609 3 1.55874 2.683901 2.12132 2.12132 
C 2.683901 1.55874 3 0.795609 3 -0 
C 3 -0.795609 2.683901 -1.55874 2.12132 -2.12132 
C 1.55874 -2.683901 0.795609 -3 0 -3 
C -0.795609 -3 -1.55874 -2.683901 -2.12132 -2.12132 
C -2.683901 -1.55874 -3 -0.795609 -3 0 
C -3 0.795609 -2.683901 1.55874 -2.12132 2.12132 
C -1.55874 2.683901 -0.795609 3 0 3 
z
" id="C21_0_fd1061346e"/>
    </defs>
    <g clip-path="url(#p43c45fc326)">
     <use style="fill:#32cd32;stroke:#000000;stroke-width:0.3;" x="847.611429" xlink:href="#C21_0_fd1061346e" y="154.44"/>
    </g>
    <g clip-path="url(#p43c45fc326)">
     <use style="fill:#32cd32;stroke:#000000;stroke-width:0.3;" x="847.611429" xlink:href="#C21_0_fd1061346e" y="164.97"/>
    </g>
   </g>
   <g id="PathCollection_42">
    <defs>
     <path d="M 0 3 
C 0.795609 3 1.55874 2.683901 2.12132 2.12132 
C 2.683901 1.55874 3 0.795609 3 -0 
C 3 -0.795609 2.683901 -1.55874 2.12132 -2.12132 
C 1.55874 -2.683901 0.795609 -3 0 -3 
C -0.795609 -3 -1.55874 -2.683901 -2.12132 -2.12132 
C -2.683901 -1.55874 -3 -0.795609 -3 0 
C -3 0.795609 -2.683901 1.55874 -2.12132 2.12132 
C -1.55874 2.683901 -0.795609 3 0 3 
z
" id="C22_0_df8063c18f"/>
    </defs>
    <g clip-path="url(#p43c45fc326)">
     <use style="fill:#ffc0cb;stroke:#000000;stroke-width:0.3;" x="864.617143" xlink:href="#C22_0_df8063c18f" y="122.85"/>
    </g>
    <g clip-path="url(#p43c45fc326)">
     <use style="fill:#ffc0cb;stroke:#000000;stroke-width:0.3;" x="864.617143" xlink:href="#C22_0_df8063c18f" y="186.03"/>
    </g>
    <g clip-path="url(#p43c45fc326)">
     <use style="fill:#ffc0cb;stroke:#000000;stroke-width:0.3;" x="858.002143" xlink:href="#C22_0_df8063c18f" y="186.03"/>
    </g>
    <g clip-path="url(#p43c45fc326)">
     <use style="fill:#ffc0cb;stroke:#000000;stroke-width:0.3;" x="864.617143" xlink:href="#C22_0_df8063c18f" y="217.62"/>
    </g>
    <g clip-path="url(#p43c45fc326)">
     <use style="fill:#ffc0cb;stroke:#000000;stroke-width:0.3;" x="864.617143" xlink:href="#C22_0_df8063c18f" y="322.92"/>
    </g>
    <g clip-path="url(#p43c45fc326)">
     <use style="fill:#ffc0cb;stroke:#000000;stroke-width:0.3;" x="864.617143" xlink:href="#C22_0_df8063c18f" y="449.28"/>
    </g>
    <g clip-path="url(#p43c45fc326)">
     <use style="fill:#ffc0cb;stroke:#000000;stroke-width:0.3;" x="864.617143" xlink:href="#C22_0_df8063c18f" y="680.94"/>
    </g>
   </g>
   <g id="PathCollection_43">
    <defs>
     <path d="M 0 3 
C 0.795609 3 1.55874 2.683901 2.12132 2.12132 
C 2.683901 1.55874 3 0.795609 3 -0 
C 3 -0.795609 2.683901 -1.55874 2.12132 -2.12132 
C 1.55874 -2.683901 0.795609 -3 0 -3 
C -0.795609 -3 -1.55874 -2.683901 -2.12132 -2.12132 
C -2.683901 -1.55874 -3 -0.795609 -3 0 
C -3 0.795609 -2.683901 1.55874 -2.12132 2.12132 
C -1.55874 2.683901 -0.795609 3 0 3 
z
" id="C23_0_8ab29534d8"/>
    </defs>
    <g clip-path="url(#p43c45fc326)">
     <use style="stroke:#000000;stroke-width:0.3;" x="911.382857" xlink:href="#C23_0_8ab29534d8" y="164.97"/>
    </g>
    <g clip-path="url(#p43c45fc326)">
     <use style="stroke:#000000;stroke-width:0.3;" x="911.382857" xlink:href="#C23_0_8ab29534d8" y="196.56"/>
    </g>
    <g clip-path="url(#p43c45fc326)">
     <use style="stroke:#000000;stroke-width:0.3;" x="911.382857" xlink:href="#C23_0_8ab29534d8" y="217.62"/>
    </g>
    <g clip-path="url(#p43c45fc326)">
     <use style="stroke:#000000;stroke-width:0.3;" x="911.382857" xlink:href="#C23_0_8ab29534d8" y="280.8"/>
    </g>
   </g>
   <g id="PathCollection_44">
    <defs>
     <path d="M 0 3 
C 0.795609 3 1.55874 2.683901 2.12132 2.12132 
C 2.683901 1.55874 3 0.795609 3 -0 
C 3 -0.795609 2.683901 -1.55874 2.12132 -2.12132 
C 1.55874 -2.683901 0.795609 -3 0 -3 
C -0.795609 -3 -1.55874 -2.683901 -2.12132 -2.12132 
C -2.683901 -1.55874 -3 -0.795609 -3 0 
C -3 0.795609 -2.683901 1.55874 -2.12132 2.12132 
C -1.55874 2.683901 -0.795609 3 0 3 
z
" id="C24_0_ce70ee899f"/>
    </defs>
    <g clip-path="url(#p43c45fc326)">
     <use style="fill:#00ffff;stroke:#000000;stroke-width:0.3;" x="928.388571" xlink:href="#C24_0_ce70ee899f" y="122.85"/>
    </g>
    <g clip-path="url(#p43c45fc326)">
     <use style="fill:#00ffff;stroke:#000000;stroke-width:0.3;" x="928.388571" xlink:href="#C24_0_ce70ee899f" y="154.44"/>
    </g>
    <g clip-path="url(#p43c45fc326)">
     <use style="fill:#00ffff;stroke:#000000;stroke-width:0.3;" x="928.388571" xlink:href="#C24_0_ce70ee899f" y="186.03"/>
    </g>
    <g clip-path="url(#p43c45fc326)">
     <use style="fill:#00ffff;stroke:#000000;stroke-width:0.3;" x="928.388571" xlink:href="#C24_0_ce70ee899f" y="217.62"/>
    </g>
    <g clip-path="url(#p43c45fc326)">
     <use style="fill:#00ffff;stroke:#000000;stroke-width:0.3;" x="928.388571" xlink:href="#C24_0_ce70ee899f" y="280.8"/>
    </g>
    <g clip-path="url(#p43c45fc326)">
     <use style="fill:#00ffff;stroke:#000000;stroke-width:0.3;" x="928.388571" xlink:href="#C24_0_ce70ee899f" y="301.86"/>
    </g>
    <g clip-path="url(#p43c45fc326)">
     <use style="fill:#00ffff;stroke:#000000;stroke-width:0.3;" x="928.388571" xlink:href="#C24_0_ce70ee899f" y="312.39"/>
    </g>
    <g clip-path="url(#p43c45fc326)">
     <use style="fill:#00ffff;stroke:#000000;stroke-width:0.3;" x="928.388571" xlink:href="#C24_0_ce70ee899f" y="491.4"/>
    </g>
   </g>
   <g id="PathCollection_45">
    <defs>
     <path d="M 0 3 
C 0.795609 3 1.55874 2.683901 2.12132 2.12132 
C 2.683901 1.55874 3 0.795609 3 -0 
C 3 -0.795609 2.683901 -1.55874 2.12132 -2.12132 
C 1.55874 -2.683901 0.795609 -3 0 -3 
C -0.795609 -3 -1.55874 -2.683901 -2.12132 -2.12132 
C -2.683901 -1.55874 -3 -0.795609 -3 0 
C -3 0.795609 -2.683901 1.55874 -2.12132 2.12132 
C -1.55874 2.683901 -0.795609 3 0 3 
z
" id="C25_0_8087ea2f9e"/>
    </defs>
    <g clip-path="url(#p43c45fc326)">
     <use style="fill:#6a5acd;stroke:#000000;stroke-width:0.3;" x="945.394286" xlink:href="#C25_0_8087ea2f9e" y="196.56"/>
    </g>
    <g clip-path="url(#p43c45fc326)">
     <use style="fill:#6a5acd;stroke:#000000;stroke-width:0.3;" x="945.394286" xlink:href="#C25_0_8087ea2f9e" y="228.15"/>
    </g>
   </g>
   <g id="PathCollection_46">
    <defs>
     <path d="M 0 3 
C 0.795609 3 1.55874 2.683901 2.12132 2.12132 
C 2.683901 1.55874 3 0.795609 3 -0 
C 3 -0.795609 2.683901 -1.55874 2.12132 -2.12132 
C 1.55874 -2.683901 0.795609 -3 0 -3 
C -0.795609 -3 -1.55874 -2.683901 -2.12132 -2.12132 
C -2.683901 -1.55874 -3 -0.795609 -3 0 
C -3 0.795609 -2.683901 1.55874 -2.12132 2.12132 
C -1.55874 2.683901 -0.795609 3 0 3 
z
" id="C26_0_37597297d3"/>
    </defs>
    <g clip-path="url(#p43c45fc326)">
     <use style="fill:#ff00ff;stroke:#000000;stroke-width:0.3;" x="962.4" xlink:href="#C26_0_37597297d3" y="333.45"/>
    </g>
    <g clip-path="url(#p43c45fc326)">
     <use style="fill:#ff00ff;stroke:#000000;stroke-width:0.3;" x="962.4" xlink:href="#C26_0_37597297d3" y="396.63"/>
    </g>
   </g>
   <g id="PathCollection_47">
    <defs>
     <path d="M 0 3 
C 0.795609 3 1.55874 2.683901 2.12132 2.12132 
C 2.683901 1.55874 3 0.795609 3 -0 
C 3 -0.795609 2.683901 -1.55874 2.12132 -2.12132 
C 1.55874 -2.683901 0.795609 -3 0 -3 
C -0.795609 -3 -1.55874 -2.683901 -2.12132 -2.12132 
C -2.683901 -1.55874 -3 -0.795609 -3 0 
C -3 0.795609 -2.683901 1.55874 -2.12132 2.12132 
C -1.55874 2.683901 -0.795609 3 0 3 
z
" id="C27_0_71b355e7db"/>
    </defs>
    <g clip-path="url(#p43c45fc326)">
     <use style="fill:#808080;stroke:#000000;stroke-width:0.3;" x="979.405714" xlink:href="#C27_0_71b355e7db" y="175.5"/>
    </g>
    <g clip-path="url(#p43c45fc326)">
     <use style="fill:#808080;stroke:#000000;stroke-width:0.3;" x="979.405714" xlink:href="#C27_0_71b355e7db" y="217.62"/>
    </g>
    <g clip-path="url(#p43c45fc326)">
     <use style="fill:#808080;stroke:#000000;stroke-width:0.3;" x="979.405714" xlink:href="#C27_0_71b355e7db" y="396.63"/>
    </g>
    <g clip-path="url(#p43c45fc326)">
     <use style="fill:#808080;stroke:#000000;stroke-width:0.3;" x="979.405714" xlink:href="#C27_0_71b355e7db" y="407.16"/>
    </g>
   </g>
   <g id="PathCollection_48">
    <defs>
     <path d="M 0 3 
C 0.795609 3 1.55874 2.683901 2.12132 2.12132 
C 2.683901 1.55874 3 0.795609 3 -0 
C 3 -0.795609 2.683901 -1.55874 2.12132 -2.12132 
C 1.55874 -2.683901 0.795609 -3 0 -3 
C -0.795609 -3 -1.55874 -2.683901 -2.12132 -2.12132 
C -2.683901 -1.55874 -3 -0.795609 -3 0 
C -3 0.795609 -2.683901 1.55874 -2.12132 2.12132 
C -1.55874 2.683901 -0.795609 3 0 3 
z
" id="C28_0_e4e2956173"/>
    </defs>
    <g clip-path="url(#p43c45fc326)">
     <use style="fill:#32cd32;stroke:#000000;stroke-width:0.3;" x="996.411429" xlink:href="#C28_0_e4e2956173" y="217.62"/>
    </g>
    <g clip-path="url(#p43c45fc326)">
     <use style="fill:#32cd32;stroke:#000000;stroke-width:0.3;" x="996.411429" xlink:href="#C28_0_e4e2956173" y="228.15"/>
    </g>
   </g>
   <g id="PathCollection_49">
    <defs>
     <path d="M 0 3 
C 0.795609 3 1.55874 2.683901 2.12132 2.12132 
C 2.683901 1.55874 3 0.795609 3 -0 
C 3 -0.795609 2.683901 -1.55874 2.12132 -2.12132 
C 1.55874 -2.683901 0.795609 -3 0 -3 
C -0.795609 -3 -1.55874 -2.683901 -2.12132 -2.12132 
C -2.683901 -1.55874 -3 -0.795609 -3 0 
C -3 0.795609 -2.683901 1.55874 -2.12132 2.12132 
C -1.55874 2.683901 -0.795609 3 0 3 
z
" id="C29_0_d39f2a2421"/>
    </defs>
    <g clip-path="url(#p43c45fc326)">
     <use style="fill:#ffc0cb;stroke:#000000;stroke-width:0.3;" x="1013.417143" xlink:href="#C29_0_d39f2a2421" y="122.85"/>
    </g>
    <g clip-path="url(#p43c45fc326)">
     <use style="fill:#ffc0cb;stroke:#000000;stroke-width:0.3;" x="1013.417143" xlink:href="#C29_0_d39f2a2421" y="154.44"/>
    </g>
    <g clip-path="url(#p43c45fc326)">
     <use style="fill:#ffc0cb;stroke:#000000;stroke-width:0.3;" x="1013.417143" xlink:href="#C29_0_d39f2a2421" y="207.09"/>
    </g>
    <g clip-path="url(#p43c45fc326)">
     <use style="fill:#ffc0cb;stroke:#000000;stroke-width:0.3;" x="1013.417143" xlink:href="#C29_0_d39f2a2421" y="217.62"/>
    </g>
    <g clip-path="url(#p43c45fc326)">
     <use style="fill:#ffc0cb;stroke:#000000;stroke-width:0.3;" x="1013.417143" xlink:href="#C29_0_d39f2a2421" y="301.86"/>
    </g>
    <g clip-path="url(#p43c45fc326)">
     <use style="fill:#ffc0cb;stroke:#000000;stroke-width:0.3;" x="1013.417143" xlink:href="#C29_0_d39f2a2421" y="312.39"/>
    </g>
    <g clip-path="url(#p43c45fc326)">
     <use style="fill:#ffc0cb;stroke:#000000;stroke-width:0.3;" x="1013.417143" xlink:href="#C29_0_d39f2a2421" y="638.82"/>
    </g>
   </g>
   <g id="legend_1">
    <g id="patch_8">
     <path d="M 151 697 
L 205.301562 697 
Q 207.301562 697 207.301562 695 
L 207.301562 578.575 
Q 207.301562 576.575 205.301562 576.575 
L 151 576.575 
Q 149 576.575 149 578.575 
L 149 695 
Q 149 697 151 697 
z
" style="fill:#ffffff;opacity:0.8;stroke:#cccccc;stroke-linejoin:miter;"/>
    </g>
    <g id="text_15">
     <!-- Ligand -->
     <g transform="translate(161.394531 588.173438)scale(0.1 -0.1)">
      <use xlink:href="#DejaVuSans-76"/>
      <use x="55.712891" xlink:href="#DejaVuSans-105"/>
      <use x="83.496094" xlink:href="#DejaVuSans-103"/>
      <use x="146.972656" xlink:href="#DejaVuSans-97"/>
      <use x="208.251953" xlink:href="#DejaVuSans-110"/>
      <use x="271.630859" xlink:href="#DejaVuSans-100"/>
     </g>
    </g>
    <g id="PathCollection_50">
     <defs>
      <path d="M 0 3.872983 
C 1.027127 3.872983 2.012324 3.464901 2.738613 2.738613 
C 3.464901 2.012324 3.872983 1.027127 3.872983 0 
C 3.872983 -1.027127 3.464901 -2.012324 2.738613 -2.738613 
C 2.012324 -3.464901 1.027127 -3.872983 0 -3.872983 
C -1.027127 -3.872983 -2.012324 -3.464901 -2.738613 -2.738613 
C -3.464901 -2.012324 -3.872983 -1.027127 -3.872983 0 
C -3.872983 1.027127 -3.464901 2.012324 -2.738613 2.738613 
C -2.012324 3.464901 -1.027127 3.872983 0 3.872983 
z
" id="m36e51dc3b2" style="stroke:#000000;"/>
     </defs>
     <g>
      <use style="stroke:#000000;" x="163" xlink:href="#m36e51dc3b2" y="600.226562"/>
     </g>
    </g>
    <g id="text_16">
     <!-- TYR -->
     <g transform="translate(181 602.851562)scale(0.1 -0.1)">
      <defs>
       <path d="M -0.296875 72.90625 
L 61.375 72.90625 
L 61.375 64.59375 
L 35.5 64.59375 
L 35.5 0 
L 25.59375 0 
L 25.59375 64.59375 
L -0.296875 64.59375 
z
" id="DejaVuSans-84"/>
       <path d="M -0.203125 72.90625 
L 10.40625 72.90625 
L 30.609375 42.921875 
L 50.6875 72.90625 
L 61.28125 72.90625 
L 35.5 34.71875 
L 35.5 0 
L 25.59375 0 
L 25.59375 34.71875 
z
" id="DejaVuSans-89"/>
      </defs>
      <use xlink:href="#DejaVuSans-84"/>
      <use x="61.083984" xlink:href="#DejaVuSans-89"/>
      <use x="122.167969" xlink:href="#DejaVuSans-82"/>
     </g>
    </g>
    <g id="PathCollection_51">
     <defs>
      <path d="M 0 3.872983 
C 1.027127 3.872983 2.012324 3.464901 2.738613 2.738613 
C 3.464901 2.012324 3.872983 1.027127 3.872983 0 
C 3.872983 -1.027127 3.464901 -2.012324 2.738613 -2.738613 
C 2.012324 -3.464901 1.027127 -3.872983 0 -3.872983 
C -1.027127 -3.872983 -2.012324 -3.464901 -2.738613 -2.738613 
C -3.464901 -2.012324 -3.872983 -1.027127 -3.872983 0 
C -3.872983 1.027127 -3.464901 2.012324 -2.738613 2.738613 
C -2.012324 3.464901 -1.027127 3.872983 0 3.872983 
z
" id="m3299a83328" style="stroke:#00ffff;"/>
     </defs>
     <g>
      <use style="fill:#00ffff;stroke:#00ffff;" x="163" xlink:href="#m3299a83328" y="614.904688"/>
     </g>
    </g>
    <g id="text_17">
     <!-- GLU -->
     <g transform="translate(181 617.529688)scale(0.1 -0.1)">
      <defs>
       <path d="M 59.515625 10.40625 
L 59.515625 29.984375 
L 43.40625 29.984375 
L 43.40625 38.09375 
L 69.28125 38.09375 
L 69.28125 6.78125 
Q 63.578125 2.734375 56.6875 0.65625 
Q 49.8125 -1.421875 42 -1.421875 
Q 24.90625 -1.421875 15.25 8.5625 
Q 5.609375 18.5625 5.609375 36.375 
Q 5.609375 54.25 15.25 64.234375 
Q 24.90625 74.21875 42 74.21875 
Q 49.125 74.21875 55.546875 72.453125 
Q 61.96875 70.703125 67.390625 67.28125 
L 67.390625 56.78125 
Q 61.921875 61.421875 55.765625 63.765625 
Q 49.609375 66.109375 42.828125 66.109375 
Q 29.4375 66.109375 22.71875 58.640625 
Q 16.015625 51.171875 16.015625 36.375 
Q 16.015625 21.625 22.71875 14.15625 
Q 29.4375 6.6875 42.828125 6.6875 
Q 48.046875 6.6875 52.140625 7.59375 
Q 56.25 8.5 59.515625 10.40625 
z
" id="DejaVuSans-71"/>
       <path d="M 8.6875 72.90625 
L 18.609375 72.90625 
L 18.609375 28.609375 
Q 18.609375 16.890625 22.84375 11.734375 
Q 27.09375 6.59375 36.625 6.59375 
Q 46.09375 6.59375 50.34375 11.734375 
Q 54.59375 16.890625 54.59375 28.609375 
L 54.59375 72.90625 
L 64.5 72.90625 
L 64.5 27.390625 
Q 64.5 13.140625 57.4375 5.859375 
Q 50.390625 -1.421875 36.625 -1.421875 
Q 22.796875 -1.421875 15.734375 5.859375 
Q 8.6875 13.140625 8.6875 27.390625 
z
" id="DejaVuSans-85"/>
      </defs>
      <use xlink:href="#DejaVuSans-71"/>
      <use x="77.490234" xlink:href="#DejaVuSans-76"/>
      <use x="128.203125" xlink:href="#DejaVuSans-85"/>
     </g>
    </g>
    <g id="PathCollection_52">
     <defs>
      <path d="M 0 3.872983 
C 1.027127 3.872983 2.012324 3.464901 2.738613 2.738613 
C 3.464901 2.012324 3.872983 1.027127 3.872983 0 
C 3.872983 -1.027127 3.464901 -2.012324 2.738613 -2.738613 
C 2.012324 -3.464901 1.027127 -3.872983 0 -3.872983 
C -1.027127 -3.872983 -2.012324 -3.464901 -2.738613 -2.738613 
C -3.464901 -2.012324 -3.872983 -1.027127 -3.872983 0 
C -3.872983 1.027127 -3.464901 2.012324 -2.738613 2.738613 
C -2.012324 3.464901 -1.027127 3.872983 0 3.872983 
z
" id="m523196bf5d" style="stroke:#6a5acd;"/>
     </defs>
     <g>
      <use style="fill:#6a5acd;stroke:#6a5acd;" x="163" xlink:href="#m523196bf5d" y="629.582813"/>
     </g>
    </g>
    <g id="text_18">
     <!-- ORN -->
     <g transform="translate(181 632.207813)scale(0.1 -0.1)">
      <defs>
       <path d="M 39.40625 66.21875 
Q 28.65625 66.21875 22.328125 58.203125 
Q 16.015625 50.203125 16.015625 36.375 
Q 16.015625 22.609375 22.328125 14.59375 
Q 28.65625 6.59375 39.40625 6.59375 
Q 50.140625 6.59375 56.421875 14.59375 
Q 62.703125 22.609375 62.703125 36.375 
Q 62.703125 50.203125 56.421875 58.203125 
Q 50.140625 66.21875 39.40625 66.21875 
z
M 39.40625 74.21875 
Q 54.734375 74.21875 63.90625 63.9375 
Q 73.09375 53.65625 73.09375 36.375 
Q 73.09375 19.140625 63.90625 8.859375 
Q 54.734375 -1.421875 39.40625 -1.421875 
Q 24.03125 -1.421875 14.8125 8.828125 
Q 5.609375 19.09375 5.609375 36.375 
Q 5.609375 53.65625 14.8125 63.9375 
Q 24.03125 74.21875 39.40625 74.21875 
z
" id="DejaVuSans-79"/>
       <path d="M 9.8125 72.90625 
L 23.09375 72.90625 
L 55.421875 11.921875 
L 55.421875 72.90625 
L 64.984375 72.90625 
L 64.984375 0 
L 51.703125 0 
L 19.390625 60.984375 
L 19.390625 0 
L 9.8125 0 
z
" id="DejaVuSans-78"/>
      </defs>
      <use xlink:href="#DejaVuSans-79"/>
      <use x="78.710938" xlink:href="#DejaVuSans-82"/>
      <use x="148.193359" xlink:href="#DejaVuSans-78"/>
     </g>
    </g>
    <g id="PathCollection_53">
     <defs>
      <path d="M 0 3.872983 
C 1.027127 3.872983 2.012324 3.464901 2.738613 2.738613 
C 3.464901 2.012324 3.872983 1.027127 3.872983 0 
C 3.872983 -1.027127 3.464901 -2.012324 2.738613 -2.738613 
C 2.012324 -3.464901 1.027127 -3.872983 0 -3.872983 
C -1.027127 -3.872983 -2.012324 -3.464901 -2.738613 -2.738613 
C -3.464901 -2.012324 -3.872983 -1.027127 -3.872983 0 
C -3.872983 1.027127 -3.464901 2.012324 -2.738613 2.738613 
C -2.012324 3.464901 -1.027127 3.872983 0 3.872983 
z
" id="m4131e9a226" style="stroke:#ff00ff;"/>
     </defs>
     <g>
      <use style="fill:#ff00ff;stroke:#ff00ff;" x="163" xlink:href="#m4131e9a226" y="644.260938"/>
     </g>
    </g>
    <g id="text_19">
     <!-- HIS -->
     <g transform="translate(181 646.885938)scale(0.1 -0.1)">
      <defs>
       <path d="M 9.8125 72.90625 
L 19.671875 72.90625 
L 19.671875 43.015625 
L 55.515625 43.015625 
L 55.515625 72.90625 
L 65.375 72.90625 
L 65.375 0 
L 55.515625 0 
L 55.515625 34.71875 
L 19.671875 34.71875 
L 19.671875 0 
L 9.8125 0 
z
" id="DejaVuSans-72"/>
       <path d="M 9.8125 72.90625 
L 19.671875 72.90625 
L 19.671875 0 
L 9.8125 0 
z
" id="DejaVuSans-73"/>
       <path d="M 53.515625 70.515625 
L 53.515625 60.890625 
Q 47.90625 63.578125 42.921875 64.890625 
Q 37.9375 66.21875 33.296875 66.21875 
Q 25.25 66.21875 20.875 63.09375 
Q 16.5 59.96875 16.5 54.203125 
Q 16.5 49.359375 19.40625 46.890625 
Q 22.3125 44.4375 30.421875 42.921875 
L 36.375 41.703125 
Q 47.40625 39.59375 52.65625 34.296875 
Q 57.90625 29 57.90625 20.125 
Q 57.90625 9.515625 50.796875 4.046875 
Q 43.703125 -1.421875 29.984375 -1.421875 
Q 24.8125 -1.421875 18.96875 -0.25 
Q 13.140625 0.921875 6.890625 3.21875 
L 6.890625 13.375 
Q 12.890625 10.015625 18.65625 8.296875 
Q 24.421875 6.59375 29.984375 6.59375 
Q 38.421875 6.59375 43.015625 9.90625 
Q 47.609375 13.234375 47.609375 19.390625 
Q 47.609375 24.75 44.3125 27.78125 
Q 41.015625 30.8125 33.5 32.328125 
L 27.484375 33.5 
Q 16.453125 35.6875 11.515625 40.375 
Q 6.59375 45.0625 6.59375 53.421875 
Q 6.59375 63.09375 13.40625 68.65625 
Q 20.21875 74.21875 32.171875 74.21875 
Q 37.3125 74.21875 42.625 73.28125 
Q 47.953125 72.359375 53.515625 70.515625 
z
" id="DejaVuSans-83"/>
      </defs>
      <use xlink:href="#DejaVuSans-72"/>
      <use x="75.195312" xlink:href="#DejaVuSans-73"/>
      <use x="104.6875" xlink:href="#DejaVuSans-83"/>
     </g>
    </g>
    <g id="PathCollection_54">
     <defs>
      <path d="M 0 3.872983 
C 1.027127 3.872983 2.012324 3.464901 2.738613 2.738613 
C 3.464901 2.012324 3.872983 1.027127 3.872983 0 
C 3.872983 -1.027127 3.464901 -2.012324 2.738613 -2.738613 
C 2.012324 -3.464901 1.027127 -3.872983 0 -3.872983 
C -1.027127 -3.872983 -2.012324 -3.464901 -2.738613 -2.738613 
C -3.464901 -2.012324 -3.872983 -1.027127 -3.872983 0 
C -3.872983 1.027127 -3.464901 2.012324 -2.738613 2.738613 
C -2.012324 3.464901 -1.027127 3.872983 0 3.872983 
z
" id="m57658c518b" style="stroke:#808080;"/>
     </defs>
     <g>
      <use style="fill:#808080;stroke:#808080;" x="163" xlink:href="#m57658c518b" y="658.939063"/>
     </g>
    </g>
    <g id="text_20">
     <!-- THR -->
     <g transform="translate(181 661.564063)scale(0.1 -0.1)">
      <use xlink:href="#DejaVuSans-84"/>
      <use x="61.083984" xlink:href="#DejaVuSans-72"/>
      <use x="136.279297" xlink:href="#DejaVuSans-82"/>
     </g>
    </g>
    <g id="PathCollection_55">
     <defs>
      <path d="M 0 3.872983 
C 1.027127 3.872983 2.012324 3.464901 2.738613 2.738613 
C 3.464901 2.012324 3.872983 1.027127 3.872983 0 
C 3.872983 -1.027127 3.464901 -2.012324 2.738613 -2.738613 
C 2.012324 -3.464901 1.027127 -3.872983 0 -3.872983 
C -1.027127 -3.872983 -2.012324 -3.464901 -2.738613 -2.738613 
C -3.464901 -2.012324 -3.872983 -1.027127 -3.872983 0 
C -3.872983 1.027127 -3.464901 2.012324 -2.738613 2.738613 
C -2.012324 3.464901 -1.027127 3.872983 0 3.872983 
z
" id="m0f93aac8e4" style="stroke:#32cd32;"/>
     </defs>
     <g>
      <use style="fill:#32cd32;stroke:#32cd32;" x="163" xlink:href="#m0f93aac8e4" y="673.617188"/>
     </g>
    </g>
    <g id="text_21">
     <!-- CYT -->
     <g transform="translate(181 676.242188)scale(0.1 -0.1)">
      <use xlink:href="#DejaVuSans-67"/>
      <use x="68.074219" xlink:href="#DejaVuSans-89"/>
      <use x="129.158203" xlink:href="#DejaVuSans-84"/>
     </g>
    </g>
    <g id="PathCollection_56">
     <defs>
      <path d="M 0 3.872983 
C 1.027127 3.872983 2.012324 3.464901 2.738613 2.738613 
C 3.464901 2.012324 3.872983 1.027127 3.872983 0 
C 3.872983 -1.027127 3.464901 -2.012324 2.738613 -2.738613 
C 2.012324 -3.464901 1.027127 -3.872983 0 -3.872983 
C -1.027127 -3.872983 -2.012324 -3.464901 -2.738613 -2.738613 
C -3.464901 -2.012324 -3.872983 -1.027127 -3.872983 0 
C -3.872983 1.027127 -3.464901 2.012324 -2.738613 2.738613 
C -2.012324 3.464901 -1.027127 3.872983 0 3.872983 
z
" id="me1579f7d25" style="stroke:#ffc0cb;"/>
     </defs>
     <g>
      <use style="fill:#ffc0cb;stroke:#ffc0cb;" x="163" xlink:href="#me1579f7d25" y="688.295313"/>
     </g>
    </g>
    <g id="text_22">
     <!-- KYN -->
     <g transform="translate(181 690.920313)scale(0.1 -0.1)">
      <defs>
       <path d="M 9.8125 72.90625 
L 19.671875 72.90625 
L 19.671875 42.09375 
L 52.390625 72.90625 
L 65.09375 72.90625 
L 28.90625 38.921875 
L 67.671875 0 
L 54.6875 0 
L 19.671875 35.109375 
L 19.671875 0 
L 9.8125 0 
z
" id="DejaVuSans-75"/>
      </defs>
      <use xlink:href="#DejaVuSans-75"/>
      <use x="61.951172" xlink:href="#DejaVuSans-89"/>
      <use x="123.035156" xlink:href="#DejaVuSans-78"/>
     </g>
    </g>
   </g>
  </g>
 </g>
 <defs>
  <clipPath id="p43c45fc326">
   <rect height="589.68" width="892.8" x="144" y="112.32"/>
  </clipPath>
 </defs>
</svg>
